<svg width="588" height="588" viewBox="0 0 488 488" fill="none" xmlns="http://www.w3.org/2000/svg">
<path d="M161.547 68.2225C161.547 68.2225 89.5671 104.901 53.6796 161.421C17.792 217.941 20.5932 290.594 64.2301 344.587C107.867 398.579 191.247 391.435 261.07 425.643C330.893 459.852 407.968 452.796 440.947 380.367C473.926 307.938 424.179 280.873 415.571 197.055C406.962 113.236 331.508 -9.50612 161.547 68.2225Z" fill="#2F27CE"/>
<path opacity="0.7" d="M161.547 68.2225C161.547 68.2225 89.5671 104.901 53.6796 161.421C17.792 217.941 20.5932 290.594 64.2301 344.587C107.867 398.579 191.247 391.435 261.07 425.643C330.893 459.852 407.968 452.796 440.947 380.367C473.926 307.938 424.179 280.873 415.571 197.055C406.962 113.236 331.508 -9.50612 161.547 68.2225Z" fill="#DEDCFF"/>
<path d="M252.589 462.419C359.634 462.419 446.412 458.377 446.412 453.391C446.412 448.405 359.634 444.363 252.589 444.363C145.543 444.363 58.7646 448.405 58.7646 453.391C58.7646 458.377 145.543 462.419 252.589 462.419Z" fill="#2F27CE"/>
<path d="M383.822 37.8101C385.208 40.133 390.215 43.5392 390.215 43.549C390.215 43.5588 391.464 39.5669 391.513 39.3034C392.04 36.2681 391.288 30.09 388.243 28.4796C387.729 28.2236 387.166 28.0791 386.593 28.0555C386.019 28.0318 385.446 28.1296 384.913 28.3424C384.38 28.5553 383.897 28.8783 383.497 29.2905C383.097 29.7026 382.789 30.1946 382.592 30.7341C381.684 32.9984 382.641 35.8386 383.822 37.8101Z" fill="#2F27CE"/>
<path d="M432.895 74.5077C432.895 74.5662 436.126 71.8725 436.311 71.6773C438.429 69.4423 441.191 63.8693 439.561 60.8534C439.273 60.3574 438.883 59.9278 438.418 59.5926C437.952 59.2574 437.421 59.0241 436.859 58.9081C436.298 58.792 435.718 58.7958 435.157 58.9191C434.597 59.0424 434.069 59.2825 433.608 59.6237C431.597 60.9998 430.826 63.8986 430.68 66.2019C430.592 68.8957 432.895 74.5077 432.895 74.5077Z" fill="#2F27CE"/>
<path d="M375.321 53.309C377.195 55.1048 382.504 56.969 382.924 57.1154C381.852 60.1377 380.984 63.2289 380.328 66.3679C379.928 68.193 379.586 70.0571 379.264 71.9213C379.264 71.0527 379.264 70.2621 379.264 70.1547C378.981 67.0901 376.629 61.3707 373.252 60.5802C372.686 60.4667 372.104 60.4741 371.541 60.6018C370.979 60.7295 370.45 60.9747 369.989 61.3212C369.528 61.6678 369.146 62.1079 368.867 62.6126C368.589 63.1173 368.42 63.6753 368.372 64.2499C368.089 66.6704 369.758 69.1299 371.417 70.7501C373.076 72.3702 377.595 74.049 378.795 74.4784C378.678 75.2006 378.551 75.9131 378.444 76.6354C377.907 80.0806 377.38 83.4674 376.765 86.8834C376.551 88.0643 376.297 89.2258 376.043 90.3774C376.043 89.6064 376.043 88.9525 376.043 88.8549C375.76 85.7805 373.408 80.0709 370.041 79.2706C369.476 79.1587 368.893 79.1672 368.332 79.2956C367.77 79.424 367.242 79.6693 366.781 80.0155C366.321 80.3618 365.938 80.8013 365.659 81.3052C365.38 81.8092 365.21 82.3663 365.161 82.9403C364.878 85.3608 366.547 87.8203 368.206 89.4502C369.865 91.0802 373.955 92.5832 375.37 93.1005C375.077 94.2717 374.784 95.4624 374.443 96.5848C374.199 97.3559 374.013 98.1074 373.72 98.8687L372.9 101.104C372.334 102.509 371.759 103.963 371.163 105.32C370.763 106.296 370.363 107.165 369.963 108.063C370.187 106.891 370.587 104.578 370.597 104.383C370.783 101.309 369.328 95.2574 366.107 94.0082C365.566 93.816 364.989 93.7406 364.416 93.7868C363.843 93.833 363.286 93.9998 362.782 94.2762C362.278 94.5527 361.838 94.9326 361.491 95.391C361.144 95.8494 360.898 96.376 360.769 96.9362C360.115 99.2883 361.393 102.002 362.789 103.827C364.331 105.837 369.094 108.404 369.689 108.707C369.016 110.19 368.352 111.635 367.737 112.991C365.863 116.895 364.126 120.243 362.74 122.751L364.624 124.098C365.981 121.473 367.718 117.988 369.592 113.831C370.285 112.328 370.987 110.698 371.69 109.019C373.382 109.438 375.096 109.764 376.824 109.995C377.146 112.572 379.527 117.022 379.84 117.598C378.454 118.476 377.107 119.306 375.819 120.077C372.149 122.283 368.928 124.059 366.4 125.406L368.45 126.87C370.812 125.523 373.681 123.844 376.883 121.824C378.298 120.936 379.811 119.97 381.294 118.955C381.743 119.443 385.442 123.405 387.775 124.391C389.902 125.289 392.85 125.836 394.958 124.616C395.463 124.344 395.905 123.97 396.256 123.517C396.607 123.063 396.859 122.542 396.995 121.985C397.131 121.428 397.149 120.849 397.047 120.285C396.945 119.721 396.725 119.184 396.403 118.711C394.382 115.91 388.155 116.036 385.227 116.983C385.052 117.042 383.275 117.862 382.114 118.398C382.739 117.988 383.334 117.588 383.968 117.149C385.218 116.3 386.447 115.412 387.765 114.455L389.649 112.991C390.283 112.523 390.898 111.937 391.542 111.41C392.987 110.141 394.392 108.795 395.778 107.409C396.529 108.502 399.252 112.347 401.224 113.557C403.195 114.768 406.016 115.744 408.28 114.856C408.822 114.666 409.317 114.365 409.734 113.971C410.151 113.577 410.48 113.1 410.699 112.57C410.918 112.04 411.023 111.47 411.007 110.896C410.99 110.323 410.853 109.76 410.603 109.244C409.032 106.179 402.864 105.34 399.819 105.847C399.633 105.847 397.496 106.481 396.324 106.823C397.144 105.974 397.974 105.144 398.784 104.266C401.117 101.728 403.4 99.0834 405.694 96.4579L407.812 94.0667C408.075 94.4571 411.208 99.1029 413.414 100.46C415.366 101.66 418.216 102.646 420.48 101.758C421.02 101.566 421.513 101.263 421.928 100.869C422.343 100.474 422.671 99.9972 422.89 99.4682C423.109 98.9391 423.214 98.37 423.199 97.7977C423.184 97.2253 423.05 96.6625 422.803 96.1456C421.232 93.0712 415.064 92.2416 412.019 92.7491C411.794 92.7491 408.71 93.6568 407.939 93.9203C409.491 92.1635 411.062 90.436 412.672 88.7866C414.871 86.558 417.212 84.4748 419.68 82.5499C419.807 82.7354 423.057 87.5958 425.321 88.9818C427.273 90.1823 430.114 91.168 432.388 90.2798C432.928 90.0894 433.422 89.7873 433.838 89.3932C434.254 88.999 434.582 88.5217 434.802 87.9923C435.021 87.4628 435.126 86.8932 435.11 86.3204C435.094 85.7476 434.958 85.1845 434.711 84.6679C433.129 81.6032 426.961 80.7638 423.926 81.2714C423.721 81.2714 421.378 81.9741 420.266 82.3157L420.178 82.14C422.683 80.2595 425.352 78.6067 428.152 77.2014C429.684 76.4011 431.187 75.7374 432.671 75.1128C433.188 76.0888 435.599 80.4711 437.473 81.9448C439.347 83.4186 442.001 84.6483 444.353 84.0139C444.912 83.8857 445.437 83.6408 445.895 83.2955C446.352 82.9501 446.732 82.512 447.008 82.0098C447.285 81.5077 447.452 80.9527 447.499 80.3815C447.546 79.8102 447.472 79.2354 447.281 78.6947C446.052 75.4642 440.01 73.9709 436.936 74.1368C436.77 74.1368 435.072 74.4199 433.842 74.6443C434.515 74.3711 435.208 74.0783 435.862 73.8343C438.292 72.8583 440.586 72.2043 442.616 71.5992C443.778 71.2674 444.832 70.9843 445.817 70.7306C446.793 71.4235 450.883 74.1368 453.196 74.5662C455.509 74.9957 458.457 74.8786 460.252 73.2291C460.688 72.8569 461.04 72.3972 461.286 71.8798C461.532 71.3625 461.666 70.7991 461.68 70.2264C461.694 69.6538 461.587 69.0846 461.366 68.556C461.145 68.0274 460.816 67.5512 460.399 67.1584C457.822 64.8648 451.771 66.3191 449.116 67.8807C448.892 68.0173 445.544 70.5354 445.593 70.5744H445.651C444.675 70.7989 443.699 71.0527 442.558 71.3454C440.508 71.9018 438.195 72.5557 435.726 73.4341C433.064 74.3583 430.457 75.4336 427.918 76.6549C425.033 78.0233 422.276 79.6466 419.68 81.5056L419.592 81.5739C420.188 80.7639 421.798 78.4312 421.896 78.236C423.35 75.5227 424.57 69.452 422.169 66.9339C421.759 66.5343 421.27 66.2252 420.733 66.0267C420.196 65.8282 419.623 65.7446 419.052 65.7814C418.48 65.8182 417.923 65.9745 417.416 66.2403C416.909 66.5061 416.463 66.8754 416.108 67.3243C414.537 69.1885 414.556 72.2043 415.054 74.4296C415.63 76.9672 419.026 81.447 419.299 81.8082C416.729 83.7463 414.291 85.8525 411.999 88.1131C410.662 89.421 409.354 90.7874 408.095 92.1635C408.593 91.451 409.071 90.7971 409.071 90.7093C410.525 87.9863 411.745 81.9253 409.344 79.3974C408.934 78.9978 408.445 78.6888 407.908 78.4902C407.371 78.2917 406.798 78.2081 406.227 78.2449C405.656 78.2817 405.098 78.4381 404.591 78.7038C404.084 78.9696 403.639 79.3389 403.283 79.7878C401.702 81.652 401.731 84.6678 402.229 86.8931C402.727 89.1184 405.567 93.0517 406.328 94.0765C405.831 94.6035 405.352 95.1403 404.845 95.6771C402.503 98.2538 400.17 100.83 397.798 103.3C396.969 104.168 396.11 104.988 395.261 105.818C395.7 105.174 396.071 104.637 396.119 104.549C397.574 101.826 398.784 95.765 396.383 93.2469C395.974 92.8453 395.486 92.5343 394.949 92.3341C394.412 92.1339 393.839 92.0489 393.268 92.0849C392.696 92.1208 392.138 92.2767 391.631 92.5425C391.123 92.8083 390.677 93.178 390.322 93.6275C388.751 95.4917 388.77 98.5075 389.278 100.733C389.785 102.958 392.333 106.52 393.182 107.731C392.294 108.551 391.396 109.38 390.488 110.132C389.854 110.639 389.287 111.166 388.624 111.635L386.672 113.05C385.423 113.909 384.134 114.807 382.895 115.607C382.036 116.173 381.206 116.7 380.377 117.237C381.216 116.378 382.826 114.67 382.943 114.514C384.487 112.285 385.434 109.698 385.696 106.999C385.879 106.761 386.039 106.506 386.174 106.237C386.447 105.733 386.61 105.176 386.654 104.604C386.697 104.031 386.62 103.456 386.427 102.916C386.233 102.375 385.928 101.882 385.532 101.467C385.135 101.052 384.656 100.726 384.124 100.508C380.894 99.2981 375.78 102.831 373.857 105.242C373.74 105.379 372.686 107.067 372.042 108.17C372.325 107.477 372.608 106.813 372.9 106.101C373.467 104.695 374.003 103.28 374.579 101.758C374.823 101.016 375.087 100.264 375.34 99.503C375.594 98.7418 375.799 97.9317 376.043 97.1314C376.551 95.2867 377.019 93.3835 377.371 91.4608C378.6 91.9586 382.992 93.6666 385.305 93.5885C387.619 93.5104 390.595 92.7198 392.001 90.7679C392.347 90.3107 392.592 89.7858 392.721 89.2273C392.851 88.6689 392.861 88.0895 392.751 87.5269C392.642 86.9642 392.415 86.431 392.085 85.9619C391.756 85.4928 391.331 85.0985 390.839 84.8045C387.833 83.1063 382.231 85.7805 379.976 87.9179C379.83 88.0546 378.376 89.7333 377.595 90.68C377.829 89.5186 378.054 88.3669 378.249 87.1859C378.795 83.7797 379.225 80.3539 379.703 76.8696C379.84 75.8058 379.996 74.7614 380.142 73.7074C380.582 73.883 385.754 76.0302 388.351 75.9424C390.644 75.8643 393.553 75.1226 394.958 73.1315C395.303 72.673 395.547 72.1473 395.676 71.5884C395.804 71.0295 395.814 70.4499 395.705 69.8869C395.595 69.3239 395.369 68.7902 395.04 68.3202C394.711 67.8502 394.288 67.4544 393.797 67.1584C390.791 65.4699 385.188 68.193 382.934 70.2816C382.758 70.4378 380.669 72.868 380.172 73.5122C380.503 71.1893 380.855 68.8762 381.294 66.6216C381.853 63.5623 382.612 60.5432 383.568 57.5839C383.773 57.6717 389.161 59.9263 391.815 59.8384C394.109 59.7603 397.017 59.0186 398.423 57.0275C398.769 56.5704 399.014 56.0455 399.144 55.487C399.273 54.9286 399.283 54.3492 399.174 53.7865C399.064 53.2239 398.837 52.6907 398.508 52.2216C398.178 51.7525 397.753 51.3581 397.261 51.0642C394.255 49.3757 388.653 52.089 386.399 54.1776C386.252 54.3142 384.651 56.1296 383.919 57.1056L383.744 57.008C384.791 54.0581 386.097 51.2068 387.648 48.4875C388.487 46.9845 389.375 45.5595 390.263 44.2517C391.239 44.7787 395.651 47.1211 398.071 47.3066C400.492 47.492 403.342 47.0626 404.952 45.2374C405.346 44.8203 405.647 44.3251 405.837 43.7839C406.027 43.2427 406.101 42.6676 406.054 42.0961C406.007 41.5245 405.84 40.9692 405.565 40.4662C405.289 39.9632 404.911 39.5238 404.455 39.1765C401.653 37.1659 395.788 39.2546 393.309 41.1285C393.172 41.2261 391.913 42.3875 391.015 43.2562C391.425 42.6608 391.845 42.0362 392.245 41.4701C393.767 39.3522 395.29 37.4978 396.656 35.8776C397.437 34.9602 398.159 34.1403 398.843 33.3888C400.063 33.3888 404.943 33.3888 407.109 32.5104C409.276 31.632 411.677 29.8655 412.263 27.5035C412.42 26.9526 412.46 26.3747 412.38 25.8074C412.299 25.24 412.1 24.696 411.795 24.2108C411.49 23.7255 411.087 23.3099 410.611 22.991C410.135 22.6722 409.597 22.4571 409.032 22.36C405.616 21.872 401.37 26.4202 400.023 29.192C399.906 29.4263 398.501 33.3791 398.569 33.3791H398.638C397.964 34.0915 397.252 34.8723 396.481 35.7312C395.085 37.3221 393.553 39.1472 391.942 41.2456C390.224 43.4847 388.637 45.8213 387.189 48.2435C385.553 50.95 384.165 53.7984 383.041 56.7543C383.036 56.7898 383.036 56.826 383.041 56.8616C383.1 55.8856 383.148 53.0259 383.129 52.8014C382.846 49.7368 380.494 44.0175 377.127 43.2269C376.561 43.1134 375.978 43.1208 375.416 43.2485C374.854 43.3762 374.325 43.6214 373.864 43.968C373.403 44.3145 373.021 44.7546 372.742 45.2593C372.463 45.7641 372.294 46.322 372.247 46.8966C371.993 49.2195 373.662 51.7278 375.321 53.309Z" fill="#2F27CE"/>
<path d="M284.876 88.0351C287.413 87.0591 291.708 82.8135 291.708 82.8135C291.708 82.8135 288.028 80.8615 287.804 80.7541C284.924 79.6708 278.717 79.2706 276.57 81.9741C276.226 82.4317 275.982 82.9564 275.855 83.5142C275.727 84.072 275.718 84.6504 275.829 85.2119C275.939 85.7734 276.166 86.3054 276.496 86.7733C276.825 87.2411 277.25 87.6345 277.741 87.9277C279.742 89.2453 282.719 88.8159 284.876 88.0351Z" fill="#2F27CE"/>
<path d="M329.995 46.5843C330.064 46.5843 328.043 42.9145 327.848 42.6803C326.043 40.1817 321.084 36.4241 317.805 37.4879C317.265 37.6802 316.772 37.9841 316.357 38.3798C315.942 38.7755 315.616 39.2542 315.398 39.7846C315.181 40.315 315.078 40.8852 315.096 41.4582C315.114 42.0311 315.252 42.5938 315.502 43.1097C316.478 45.3447 319.191 46.6428 321.436 47.1699C324.032 47.8238 329.995 46.5843 329.995 46.5843Z" fill="#2F27CE"/>
<path d="M298.529 99.2494C300.647 97.7366 303.458 92.8664 303.683 92.476C306.464 94.0905 309.35 95.5185 312.32 96.7509C314.048 97.4829 315.814 98.1563 317.591 98.82C316.732 98.6345 315.961 98.4784 315.853 98.4686C312.789 98.1856 306.689 99.4446 305.332 102.617C305.123 103.15 305.027 103.721 305.053 104.293C305.078 104.865 305.223 105.426 305.479 105.938C305.735 106.451 306.096 106.904 306.538 107.268C306.98 107.633 307.493 107.9 308.045 108.053C310.368 108.775 313.13 107.594 315.004 106.257C316.878 104.92 319.386 100.792 320.021 99.6984L322.07 100.44C325.36 101.602 328.649 102.753 331.83 103.973C332.953 104.412 334.036 104.871 335.129 105.34C334.378 105.174 333.734 105.047 333.636 105.037C330.562 104.754 324.471 106.013 323.115 109.175C322.902 109.708 322.804 110.28 322.827 110.853C322.85 111.427 322.994 111.989 323.249 112.503C323.504 113.017 323.865 113.471 324.308 113.836C324.75 114.201 325.265 114.469 325.818 114.621C328.151 115.344 330.903 114.163 332.777 112.826C334.651 111.488 336.915 107.76 337.657 106.462C338.76 106.97 339.873 107.438 340.917 108.014C341.62 108.404 342.332 108.726 343.025 109.156L345.075 110.366C346.353 111.186 347.671 112.016 348.891 112.845C349.75 113.421 350.56 113.977 351.37 114.543C350.257 114.104 348.061 113.284 347.866 113.236C344.88 112.484 338.662 112.796 336.837 115.734C336.549 116.228 336.368 116.778 336.306 117.347C336.244 117.916 336.302 118.491 336.477 119.036C336.652 119.581 336.939 120.083 337.321 120.51C337.702 120.936 338.169 121.278 338.692 121.512C340.888 122.586 343.786 121.834 345.846 120.8C348.1 119.658 351.507 115.451 351.926 114.944C353.263 115.92 354.561 116.798 355.772 117.686C359.295 120.263 362.233 122.566 364.468 124.401L366.137 122.81C363.804 120.985 360.7 118.633 356.962 115.978C355.606 115.002 354.132 114.026 352.609 113.05C353.331 111.462 353.957 109.833 354.483 108.17C357.08 108.326 361.891 106.804 362.516 106.608C363.121 108.121 363.697 109.605 364.214 111.02C365.698 115.031 366.849 118.525 367.708 121.258L369.524 119.511C368.645 116.944 367.513 113.811 366.117 110.288C365.512 108.746 364.839 107.106 364.116 105.408C364.683 105.057 369.26 102.158 370.656 100.04C371.924 98.088 373.008 95.3161 372.198 93.0225C372.025 92.4758 371.74 91.9715 371.36 91.5424C370.979 91.1134 370.513 90.7694 369.991 90.5327C369.469 90.2961 368.903 90.1721 368.329 90.1689C367.756 90.1657 367.189 90.2834 366.664 90.5142C363.541 91.9782 362.516 98.1173 362.916 101.172C362.916 101.358 363.404 103.28 363.726 104.491C363.433 103.807 363.15 103.144 362.838 102.441C362.233 101.055 361.579 99.6886 360.886 98.2149C360.535 97.5121 360.164 96.8094 359.803 96.0969C359.441 95.3845 358.992 94.672 358.592 93.94C357.616 92.2906 356.552 90.6606 355.44 89.06C356.66 88.5232 360.944 86.5614 362.496 84.8437C364.048 83.1259 365.532 80.5395 365.073 78.1483C364.987 77.5814 364.782 77.039 364.472 76.5566C364.162 76.0741 363.754 75.6625 363.274 75.3484C362.794 75.0344 362.253 74.825 361.687 74.734C361.121 74.643 360.542 74.6723 359.988 74.8202C356.679 75.7962 354.727 81.7107 354.659 84.7949C354.659 84.9901 354.854 87.2056 354.981 88.4158C354.308 87.4398 353.644 86.4638 352.932 85.4878C350.862 82.7257 348.696 79.993 346.539 77.2602C345.875 76.4208 345.221 75.5814 344.587 74.7323C345.016 74.5469 350.16 72.3216 351.897 70.4086C353.439 68.7006 354.932 66.0947 354.483 63.7035C354.396 63.1364 354.19 62.594 353.879 62.1119C353.568 61.6298 353.159 61.2187 352.678 60.9055C352.197 60.5923 351.655 60.3841 351.089 60.2944C350.522 60.2048 349.943 60.2357 349.389 60.3851C346.09 61.3611 344.138 67.2757 344.069 70.3598C344.069 70.5843 344.352 73.7758 344.46 74.5859C343.025 72.7315 341.61 70.8673 340.292 68.9837C338.495 66.4407 336.865 63.7836 335.412 61.0293C335.608 60.9414 340.995 58.6478 342.771 56.6763C344.313 54.9781 345.807 52.3721 345.358 49.9809C345.269 49.4143 345.062 48.8727 344.751 48.391C344.439 47.9093 344.03 47.4984 343.55 47.1847C343.07 46.871 342.529 46.6616 341.963 46.57C341.397 46.4783 340.818 46.5066 340.263 46.6528C336.954 47.6288 335.012 53.5531 334.944 56.6275C334.944 56.8325 335.149 59.2627 335.285 60.4144L335.09 60.4729C333.707 57.6505 332.577 54.711 331.713 51.6889C331.216 50.0395 330.835 48.4389 330.493 46.8675C331.547 46.5357 336.3 44.9936 338.106 43.4027C339.912 41.8118 341.6 39.4987 341.405 37.0294C341.385 36.4532 341.244 35.8876 340.99 35.3699C340.736 34.8521 340.376 34.3939 339.933 34.0252C339.489 33.6566 338.973 33.3858 338.418 33.2307C337.862 33.0757 337.281 33.0398 336.71 33.1254C333.314 33.7403 330.737 39.4011 330.327 42.456C330.327 42.6219 330.259 44.3397 330.249 45.5889C330.113 44.8765 329.947 44.1445 329.83 43.4613C329.361 40.8846 329.098 38.5129 328.854 36.4048C328.736 35.1945 328.658 34.1112 328.59 33.0961C329.449 32.2373 332.875 28.7529 333.714 26.5472C334.553 24.3414 335.002 21.4329 333.714 19.3638C333.428 18.8669 333.041 18.4359 332.577 18.0987C332.114 17.7616 331.584 17.526 331.023 17.4072C330.462 17.2884 329.883 17.2891 329.322 17.4093C328.762 17.5295 328.233 17.7665 327.77 18.1048C325.037 20.2129 325.35 26.4301 326.394 29.3288C326.482 29.5728 328.346 33.3304 328.395 33.2913L328.444 33.2328C328.444 34.2088 328.541 35.2726 328.629 36.4146C328.805 38.5325 329.02 40.9334 329.429 43.5198C329.836 46.3138 330.409 49.0808 331.147 51.8061C331.95 54.863 333.024 57.8419 334.358 60.7072L334.417 60.8048C333.724 60.063 331.733 58.0622 331.567 57.8768C329.166 55.9248 323.388 53.6214 320.509 55.5246C320.038 55.8523 319.642 56.2755 319.346 56.7666C319.05 57.2577 318.861 57.8056 318.791 58.3748C318.721 58.9439 318.771 59.5214 318.94 60.0696C319.108 60.6178 319.39 61.1244 319.767 61.5563C321.309 63.44 324.257 63.9768 326.599 63.8889C329.195 63.8011 334.231 61.2928 334.632 61.0878C336.067 63.9737 337.698 66.7585 339.512 69.4229C340.546 70.9845 341.649 72.5168 342.762 74.0491C342.147 73.4245 341.6 72.8779 341.512 72.8096C339.111 70.8576 333.333 68.5542 330.454 70.4574C329.984 70.7851 329.587 71.2083 329.291 71.6994C328.995 72.1905 328.806 72.7384 328.736 73.3076C328.666 73.8767 328.717 74.4542 328.885 75.0024C329.053 75.5506 329.335 76.0572 329.712 76.4891C331.255 78.3728 334.202 78.9096 336.544 78.8315C338.887 78.7534 343.211 76.6941 344.352 76.128C344.792 76.7136 345.211 77.2992 345.651 77.875C347.749 80.6664 349.857 83.4382 351.838 86.2101C352.541 87.1861 353.195 88.1621 353.849 89.1381L352.766 88.0547C350.365 86.1027 344.587 83.8091 341.708 85.7025C341.237 86.0302 340.841 86.4534 340.545 86.9445C340.249 87.4356 340.059 87.9836 339.989 88.5527C339.919 89.1218 339.97 89.6994 340.138 90.2476C340.307 90.7957 340.589 91.3023 340.966 91.7342C342.498 93.6277 345.455 94.1645 347.798 94.0766C350.14 93.9888 354.044 92.1246 355.401 91.4805C356.045 92.515 356.689 93.5496 357.265 94.5744C357.636 95.2869 358.046 95.9505 358.387 96.6825C358.729 97.4145 359.09 98.1173 359.432 98.8298C360.047 100.216 360.681 101.641 361.247 103.007C361.647 103.983 362.008 104.871 362.379 105.789C361.696 104.813 360.31 102.861 360.183 102.763C358.276 100.833 355.908 99.4219 353.302 98.6638C353.103 98.4396 352.88 98.2368 352.639 98.0587C352.192 97.6979 351.675 97.4353 351.12 97.2882C350.565 97.141 349.986 97.1125 349.419 97.2047C348.853 97.2968 348.312 97.5074 347.833 97.8227C347.353 98.1381 346.945 98.5511 346.636 99.0347C344.85 101.963 347.368 107.672 349.389 109.995C349.506 110.132 350.97 111.479 351.897 112.318C351.272 111.908 350.677 111.508 350.033 111.098C348.754 110.278 347.456 109.488 346.07 108.648L343.991 107.477C343.308 107.067 342.527 106.726 341.795 106.355C340.068 105.506 338.282 104.735 336.466 103.993C337.179 102.88 339.668 98.8785 340.019 96.5947C340.37 94.3109 340.175 91.3243 338.477 89.5773C338.093 89.151 337.625 88.8101 337.101 88.5768C336.577 88.3435 336.01 88.2229 335.437 88.2229C334.863 88.2229 334.296 88.3435 333.773 88.5768C333.249 88.8101 332.78 89.151 332.396 89.5773C330.181 92.2222 331.821 98.2246 333.46 100.831C333.558 100.996 334.954 102.783 335.734 103.671C334.632 103.241 333.538 102.802 332.416 102.392C329.176 101.231 325.857 100.147 322.549 99.0542L319.523 98.0782C319.777 97.6878 322.841 92.9933 323.232 90.4264C323.573 88.1523 323.388 85.156 321.69 83.4187C321.306 82.9924 320.837 82.6516 320.314 82.4182C319.79 82.1849 319.223 82.0643 318.65 82.0643C318.076 82.0643 317.509 82.1849 316.985 82.4182C316.462 82.6516 315.993 82.9924 315.609 83.4187C313.394 86.0637 315.033 92.0758 316.673 94.6817C316.79 94.877 318.791 97.3755 319.338 97.9904C317.112 97.2291 314.907 96.4678 312.769 95.6187C309.872 94.4966 307.049 93.1926 304.317 91.7147C304.434 91.5293 307.655 86.6395 308.055 84.0238C308.406 81.7497 308.211 78.7534 306.513 77.0064C306.129 76.5801 305.661 76.2392 305.137 76.0059C304.613 75.7726 304.046 75.652 303.473 75.652C302.899 75.652 302.332 75.7726 301.809 76.0059C301.285 76.2392 300.816 76.5801 300.432 77.0064C298.217 79.6513 299.857 85.6537 301.496 88.2597C301.604 88.4353 303.126 90.3385 303.868 91.1877L303.741 91.3438C301.037 89.7624 298.48 87.9431 296.099 85.9075C294.772 84.8046 293.561 83.6725 292.42 82.5501C293.112 81.701 296.236 77.7872 296.851 75.4741C297.465 73.1609 297.592 70.2525 296.089 68.3298C295.753 67.8654 295.323 67.4771 294.827 67.1901C294.331 66.9031 293.78 66.7238 293.21 66.664C292.64 66.6041 292.064 66.665 291.519 66.8427C290.974 67.0204 290.473 67.311 290.048 67.6953C287.549 70.0865 288.525 76.2353 289.862 79.0072C289.94 79.1536 290.838 80.6078 291.531 81.6522C291.024 81.1349 290.487 80.6176 290.009 80.1101C288.203 78.2264 286.661 76.3915 285.324 74.7518C284.563 73.7758 283.899 72.9462 283.274 72.1362C283.528 70.9454 284.455 66.1533 283.948 63.8499C283.44 61.5465 282.191 58.8723 279.976 57.8573C279.443 57.5954 278.86 57.4527 278.266 57.4389C277.673 57.4251 277.084 57.5406 276.54 57.7774C275.995 58.0142 275.509 58.3666 275.115 58.8102C274.721 59.2538 274.428 59.7779 274.256 60.3461C273.144 63.6157 276.833 68.6225 279.302 70.4672C279.517 70.6233 283.138 72.7315 283.157 72.6729C283.177 72.6144 283.157 72.6144 283.157 72.5949C283.733 73.3952 284.358 74.2443 285.109 75.152C286.417 76.8209 287.92 78.6949 289.687 80.6273C291.569 82.7339 293.573 84.7283 295.689 86.6005C298.048 88.7049 300.589 90.5959 303.282 92.2515H303.39C302.414 92.0173 299.632 91.4317 299.417 91.4122C296.353 91.1291 290.253 92.3882 288.896 95.5504C288.685 96.084 288.589 96.6562 288.613 97.2295C288.638 97.8029 288.783 98.3647 289.039 98.8784C289.294 99.3921 289.656 99.8461 290.099 100.211C290.541 100.576 291.056 100.844 291.609 100.996C293.903 101.768 296.704 100.587 298.529 99.2494Z" fill="#2F27CE"/>
<path d="M140.389 380.006C142.204 380.63 145.269 383.627 145.269 383.627C145.269 383.627 142.672 385.081 142.497 385.149C140.457 385.969 136.036 386.35 134.464 384.456C134.215 384.134 134.036 383.763 133.938 383.367C133.841 382.971 133.827 382.559 133.897 382.158C133.968 381.756 134.122 381.374 134.349 381.035C134.576 380.696 134.871 380.409 135.216 380.191C136.709 379.215 138.837 379.469 140.389 380.006Z" fill="#2F27CE"/>
<path d="M173.172 408.885C173.172 408.885 171.805 411.53 171.698 411.686C170.449 413.492 166.964 416.244 164.612 415.532C164.226 415.401 163.872 415.19 163.572 414.914C163.272 414.637 163.033 414.302 162.87 413.928C162.708 413.554 162.625 413.15 162.627 412.742C162.63 412.334 162.718 411.932 162.885 411.56C163.558 409.959 165.461 408.993 167.052 408.583C168.916 408.105 173.172 408.885 173.172 408.885Z" fill="#2F27CE"/>
<path d="M149.953 371.856C151.485 372.9 153.564 376.336 153.73 376.609C155.69 375.413 157.728 374.35 159.83 373.427C161.05 372.89 162.299 372.373 163.549 371.885C162.943 372.022 162.397 372.149 162.319 372.149C160.142 372.402 155.78 371.602 154.755 369.357C154.601 368.981 154.528 368.576 154.54 368.17C154.551 367.763 154.647 367.364 154.822 366.997C154.996 366.629 155.245 366.302 155.553 366.037C155.861 365.771 156.22 365.572 156.609 365.453C158.259 364.897 160.24 365.697 161.597 366.624C162.953 367.552 164.808 370.46 165.276 371.231L166.73 370.665C169.053 369.787 171.376 368.918 173.631 368.001C174.431 367.679 175.202 367.327 175.973 367.025L174.909 367.259C172.723 367.503 168.36 366.703 167.345 364.458C167.192 364.081 167.119 363.677 167.13 363.27C167.142 362.864 167.238 362.464 167.412 362.097C167.587 361.73 167.836 361.403 168.143 361.137C168.451 360.871 168.811 360.673 169.2 360.554C170.839 359.997 172.821 360.807 174.177 361.725C175.534 362.642 177.203 365.278 177.779 366.195C178.55 365.814 179.34 365.434 180.072 365.034C180.57 364.751 181.048 364.507 181.556 364.194L183 363.296C183.898 362.701 184.835 362.076 185.694 361.471L187.392 360.144C186.602 360.476 185.05 361.12 184.913 361.12C182.795 361.696 178.355 361.559 177.017 359.5C176.806 359.15 176.669 358.76 176.617 358.355C176.566 357.949 176.599 357.538 176.716 357.146C176.833 356.754 177.03 356.392 177.295 356.081C177.561 355.77 177.888 355.518 178.257 355.342C179.799 354.551 181.878 355.039 183.361 355.752C184.845 356.464 187.47 359.48 187.783 359.851C188.759 359.168 189.637 358.485 190.486 357.84C192.955 355.947 195.015 354.249 196.586 352.96L197.796 354.073C196.157 355.4 193.98 357.128 191.355 359.041C190.379 359.744 189.403 360.476 188.3 361.208C188.835 362.328 189.304 363.478 189.705 364.653C191.657 364.713 193.592 365.041 195.454 365.629C195.864 364.536 196.254 363.472 196.596 362.457C197.572 359.578 198.372 357.069 198.938 355.108L200.256 356.318C199.67 358.163 198.909 360.417 197.972 362.955C197.562 364.058 197.103 365.239 196.615 366.449C197.025 366.683 200.334 368.684 201.359 370.177C202.384 371.67 203.106 373.505 202.559 375.155C202.442 375.545 202.245 375.907 201.98 376.217C201.716 376.527 201.389 376.778 201.021 376.954C200.654 377.131 200.254 377.228 199.846 377.241C199.439 377.254 199.033 377.182 198.655 377.029C196.411 376.053 195.581 371.661 195.815 369.474C195.815 369.347 196.137 367.971 196.352 367.103C196.147 367.591 195.962 368.079 195.747 368.576C195.337 369.552 194.888 370.528 194.419 371.622C194.175 372.119 193.931 372.598 193.678 373.144C193.424 373.691 193.121 374.179 192.848 374.696C192.175 375.896 191.443 377.068 190.672 378.239C191.55 378.61 194.634 379.947 195.766 381.167C196.899 382.387 197.992 384.192 197.718 385.91C197.661 386.313 197.521 386.7 197.306 387.046C197.091 387.392 196.807 387.689 196.471 387.918C196.134 388.148 195.754 388.305 195.354 388.379C194.954 388.454 194.542 388.444 194.146 388.35C191.775 387.706 190.291 383.519 190.242 381.323C190.242 381.186 190.34 379.605 190.418 378.737C189.949 379.439 189.442 380.132 188.993 380.825C187.558 382.826 186.065 384.807 184.552 386.789C184.093 387.394 183.644 388.009 183.195 388.614C183.508 388.741 187.207 390.253 188.476 391.6C189.598 392.791 190.701 394.626 190.428 396.334C190.371 396.738 190.23 397.126 190.015 397.472C189.799 397.819 189.514 398.117 189.177 398.346C188.839 398.576 188.458 398.733 188.056 398.806C187.655 398.88 187.243 398.869 186.846 398.774C184.474 398.13 183 393.943 182.942 391.747C182.942 391.581 183.088 389.307 183.156 388.731C182.18 390.068 181.204 391.415 180.228 392.781C178.991 394.622 177.869 396.539 176.871 398.52C177.017 398.579 180.892 400.14 182.19 401.516C183.313 402.707 184.415 404.542 184.142 406.26C184.085 406.664 183.945 407.052 183.729 407.398C183.514 407.745 183.228 408.043 182.891 408.272C182.554 408.502 182.172 408.659 181.771 408.732C181.369 408.806 180.957 408.795 180.56 408.7C178.189 408.046 176.715 403.82 176.656 401.673C176.656 401.526 176.764 399.789 176.842 398.969H176.705C175.761 400.992 174.999 403.096 174.431 405.255C174.099 406.435 173.845 407.587 173.631 408.719C174.382 408.934 177.798 409.959 179.106 411.071C180.414 412.184 181.653 413.834 181.556 415.561C181.544 415.969 181.447 416.37 181.271 416.738C181.096 417.106 180.845 417.433 180.535 417.699C180.225 417.964 179.864 418.162 179.473 418.28C179.082 418.398 178.671 418.432 178.267 418.382C175.836 418.001 173.914 413.999 173.572 411.833C173.572 411.716 173.504 410.496 173.475 409.598C173.387 410.115 173.279 410.632 173.211 411.12C172.918 412.965 172.762 414.663 172.635 416.166C172.567 417.025 172.528 417.806 172.499 418.528C173.123 419.133 175.612 421.563 176.246 423.125C176.881 424.687 177.222 426.746 176.354 428.239C176.154 428.594 175.883 428.904 175.557 429.148C175.231 429.393 174.858 429.566 174.461 429.658C174.064 429.75 173.653 429.758 173.252 429.682C172.852 429.606 172.473 429.447 172.137 429.215C170.185 427.761 170.283 423.359 170.986 421.241C171.054 421.056 172.323 418.313 172.352 418.382C172.352 417.679 172.352 416.927 172.44 416.108C172.528 414.595 172.645 412.887 172.899 411.042C173.154 409.045 173.522 407.064 174.002 405.108C174.531 402.915 175.252 400.772 176.159 398.706C176.162 398.683 176.162 398.66 176.159 398.637C175.68 399.174 174.294 400.638 174.207 400.736C172.518 402.151 168.438 403.888 166.35 402.58C166.011 402.351 165.724 402.054 165.507 401.708C165.291 401.362 165.149 400.974 165.091 400.569C165.033 400.165 165.06 399.753 165.171 399.359C165.282 398.966 165.474 398.6 165.735 398.286C166.808 396.919 168.897 396.5 170.547 396.519C172.391 396.519 176.022 398.266 176.305 398.403C177.264 396.316 178.36 394.295 179.584 392.352C180.307 391.22 181.068 390.107 181.839 389.004C181.409 389.453 181.019 389.853 180.96 389.902C179.282 391.317 175.192 393.055 173.152 391.747C172.814 391.518 172.527 391.221 172.31 390.874C172.093 390.528 171.951 390.14 171.893 389.736C171.836 389.331 171.863 388.919 171.974 388.526C172.085 388.133 172.277 387.767 172.538 387.452C173.601 386.086 175.7 385.666 177.339 385.686C178.979 385.705 182.132 387.111 182.951 387.491L183.849 386.232C185.304 384.212 186.777 382.201 188.144 380.191C188.622 379.488 189.12 378.766 189.53 378.053C189.149 378.454 188.827 378.795 188.768 378.834C187.08 380.249 183 381.987 180.96 380.679C180.623 380.45 180.338 380.153 180.122 379.808C179.906 379.462 179.765 379.076 179.707 378.672C179.649 378.269 179.676 377.858 179.786 377.466C179.896 377.074 180.086 376.709 180.346 376.394C181.409 375.018 183.508 374.598 185.147 374.618C186.787 374.637 189.627 375.906 190.603 376.355C191.052 375.613 191.491 374.872 191.892 374.13C192.145 373.613 192.428 373.154 192.663 372.607C192.897 372.061 193.141 371.573 193.375 371.065C193.785 370.089 194.224 369.035 194.605 368.059C194.878 367.376 195.122 366.722 195.366 366.058C194.898 366.771 193.941 368.137 193.844 368.245C192.521 369.653 190.857 370.695 189.012 371.27C188.868 371.429 188.712 371.576 188.544 371.709C188.231 371.972 187.867 372.166 187.475 372.279C187.083 372.392 186.672 372.422 186.267 372.367C185.863 372.312 185.474 372.173 185.127 371.959C184.78 371.744 184.481 371.46 184.25 371.124C182.932 369.045 184.65 364.955 186.045 363.257C186.133 363.16 187.148 362.184 187.802 361.569C187.363 361.871 186.943 362.164 186.485 362.467C185.596 363.072 184.679 363.648 183.703 364.272L182.239 365.141C181.761 365.443 181.204 365.697 180.687 365.971C179.477 366.605 178.208 367.181 176.92 367.727C177.447 368.518 179.282 371.339 179.565 372.959C179.848 374.579 179.76 376.716 178.589 377.985C178.318 378.291 177.987 378.537 177.616 378.707C177.245 378.877 176.843 378.968 176.435 378.973C176.027 378.979 175.622 378.899 175.247 378.739C174.872 378.579 174.534 378.342 174.255 378.044C172.645 376.189 173.719 371.885 174.851 370.001C174.919 369.884 175.885 368.625 176.422 367.942C175.651 368.274 174.88 368.596 174.08 368.918C171.786 369.796 169.434 370.616 167.091 371.446C166.379 371.69 165.667 371.953 164.954 372.217C165.139 372.49 167.394 375.789 167.706 377.614C167.989 379.225 167.902 381.362 166.73 382.631C166.461 382.936 166.131 383.181 165.761 383.351C165.391 383.521 164.99 383.612 164.584 383.618C164.177 383.625 163.773 383.546 163.398 383.388C163.023 383.23 162.686 382.995 162.407 382.699C160.787 380.845 161.86 376.541 162.992 374.657C163.07 374.511 164.466 372.705 164.837 372.256C163.266 372.832 161.704 373.408 160.191 374.052C158.139 374.892 156.147 375.87 154.228 376.98C154.316 377.107 156.678 380.542 157.009 382.406C157.283 384.017 157.195 386.154 156.033 387.423C155.764 387.729 155.433 387.976 155.063 388.147C154.692 388.318 154.29 388.409 153.882 388.416C153.474 388.422 153.069 388.343 152.693 388.184C152.317 388.025 151.979 387.789 151.7 387.491C150.08 385.637 151.153 381.333 152.286 379.449C152.364 379.322 153.418 377.946 153.935 377.302L153.837 377.195C151.933 378.36 150.137 379.692 148.469 381.177C147.542 381.987 146.703 382.807 145.903 383.626C146.4 384.222 148.684 386.964 149.162 388.604C149.641 390.244 149.767 392.323 148.733 393.708C148.498 394.043 148.196 394.324 147.846 394.534C147.495 394.745 147.105 394.88 146.7 394.93C146.294 394.981 145.883 394.946 145.492 394.828C145.101 394.71 144.739 394.512 144.429 394.245C142.613 392.586 143.209 388.194 144.126 386.193C144.175 386.086 144.809 385.042 145.278 384.241C144.927 384.612 144.546 384.993 144.214 385.364C142.955 386.73 141.891 388.067 140.954 389.268C140.427 389.941 139.978 390.575 139.539 391.161C139.734 392 140.466 395.407 140.134 397.017C139.803 398.627 138.963 400.589 137.392 401.341C137.03 401.528 136.634 401.638 136.228 401.664C135.821 401.69 135.414 401.631 135.032 401.49C134.65 401.349 134.302 401.131 134.009 400.848C133.716 400.565 133.485 400.224 133.332 399.847C132.492 397.534 135.049 393.904 136.777 392.557C136.933 392.44 139.48 390.888 139.49 390.927C139.89 390.351 140.33 389.736 140.818 389.082C141.725 387.872 142.77 386.506 143.999 385.11C145.313 383.582 146.715 382.132 148.196 380.767C149.82 379.274 151.57 377.925 153.427 376.736H153.496C152.803 376.921 150.831 377.38 150.685 377.399C148.499 377.643 144.136 376.843 143.121 374.598C142.967 374.222 142.894 373.819 142.905 373.413C142.916 373.007 143.011 372.608 143.184 372.24C143.358 371.873 143.606 371.546 143.912 371.28C144.219 371.014 144.578 370.814 144.966 370.694C146.615 370.079 148.596 370.88 149.953 371.856Z" fill="#2F27CE"/>
<path d="M199.514 393.962C201.31 393.25 205.624 393.503 205.624 393.503C205.624 393.503 204.589 396.295 204.501 396.431C203.525 398.383 200.373 401.536 197.943 401.116C197.544 401.032 197.168 400.867 196.837 400.629C196.506 400.392 196.228 400.088 196.022 399.737C195.815 399.386 195.684 398.996 195.637 398.591C195.589 398.187 195.627 397.777 195.747 397.388C196.176 395.748 197.992 394.557 199.514 393.962Z" fill="#2F27CE"/>
<path d="M243.2 394.597C243.2 394.597 243.883 397.525 243.903 397.681C244.127 399.867 243.278 404.22 240.975 405.206C240.596 405.359 240.189 405.43 239.78 405.416C239.372 405.402 238.971 405.303 238.603 405.124C238.235 404.946 237.909 404.693 237.645 404.381C237.381 404.068 237.185 403.705 237.071 403.312C236.534 401.663 237.363 399.682 238.3 398.345C239.462 396.763 243.2 394.597 243.2 394.597Z" fill="#2F27CE"/>
<path d="M201.457 381.508C203.301 381.313 207.108 382.572 207.41 382.67C208.126 380.487 208.987 378.355 209.987 376.287C210.553 375.086 211.178 373.886 211.802 372.695C211.441 373.193 211.099 373.671 211.051 373.671C209.548 375.272 205.712 377.507 203.487 376.462C203.122 376.277 202.8 376.018 202.542 375.701C202.284 375.384 202.095 375.017 201.987 374.622C201.88 374.228 201.856 373.815 201.918 373.411C201.979 373.007 202.125 372.62 202.345 372.275C203.233 370.792 205.273 370.109 206.893 369.933C208.513 369.757 211.822 370.753 212.69 371.036L213.422 369.67C214.623 367.483 215.823 365.317 216.936 363.15C217.336 362.389 217.687 361.627 218.049 360.856C217.726 361.305 217.443 361.676 217.395 361.725C215.901 363.335 212.056 365.561 209.831 364.516C209.467 364.331 209.147 364.072 208.89 363.756C208.632 363.44 208.444 363.073 208.337 362.68C208.229 362.287 208.205 361.875 208.265 361.472C208.326 361.069 208.47 360.683 208.689 360.339C209.587 358.846 211.617 358.172 213.247 357.997C214.877 357.821 217.853 358.719 218.878 359.051C219.22 358.25 219.571 357.46 219.854 356.669C220.049 356.132 220.274 355.625 220.43 355.069C220.586 354.512 220.781 353.985 220.947 353.448C221.24 352.404 221.543 351.34 221.806 350.315C221.992 349.603 222.148 348.92 222.314 348.237C221.933 348.998 221.152 350.481 221.074 350.598C219.835 352.414 216.38 355.195 214.018 354.502C213.63 354.374 213.274 354.166 212.972 353.892C212.669 353.618 212.428 353.283 212.262 352.91C212.097 352.537 212.011 352.133 212.011 351.725C212.011 351.317 212.096 350.913 212.261 350.54C212.915 348.939 214.818 347.954 216.409 347.534C218.156 347.065 221.953 347.69 222.431 347.768C222.704 346.636 222.958 345.533 223.173 344.489C223.826 341.444 224.285 338.818 224.617 336.778L226.257 336.847C225.886 338.916 225.349 341.639 224.598 344.801C224.324 345.953 224.022 347.182 223.69 348.442C224.823 348.939 225.925 349.506 226.989 350.14C228.518 348.937 230.206 347.951 232.005 347.212C231.605 346.109 231.205 345.055 230.815 344.059C229.702 341.219 228.658 338.808 227.809 336.944L229.604 337.013C230.356 338.799 231.244 340.995 232.171 343.542C232.591 344.645 233.001 345.845 233.421 347.075C233.889 346.997 237.695 346.363 239.442 346.821C241.033 347.241 242.937 348.217 243.6 349.827C243.765 350.201 243.85 350.604 243.85 351.013C243.85 351.421 243.764 351.824 243.599 352.198C243.433 352.571 243.192 352.905 242.889 353.179C242.587 353.454 242.231 353.662 241.843 353.79C239.482 354.493 235.987 351.711 234.787 349.886C234.709 349.779 234.045 348.529 233.645 347.739C233.811 348.237 233.977 348.715 234.143 349.252C234.475 350.276 234.787 351.311 235.119 352.424C235.255 352.97 235.402 353.517 235.538 354.063C235.675 354.61 235.792 355.215 235.919 355.791C236.183 357.128 236.397 358.504 236.573 359.89C237.471 359.597 240.682 358.611 242.322 358.787C243.961 358.963 245.982 359.636 246.88 361.13C247.098 361.473 247.243 361.859 247.304 362.261C247.366 362.664 247.342 363.075 247.236 363.468C247.129 363.861 246.942 364.228 246.686 364.544C246.429 364.861 246.11 365.121 245.747 365.307C243.522 366.361 239.677 364.136 238.183 362.535C238.086 362.428 237.139 361.159 236.632 360.446C236.729 361.286 236.837 362.115 236.915 362.964C237.129 365.414 237.266 367.903 237.422 370.382C237.422 371.143 237.52 371.895 237.569 372.656C237.891 372.549 241.687 371.29 243.522 371.485C245.152 371.661 247.182 372.334 248.08 373.818C248.301 374.161 248.447 374.548 248.509 374.951C248.571 375.355 248.548 375.767 248.441 376.162C248.335 376.556 248.147 376.924 247.89 377.241C247.632 377.559 247.312 377.819 246.948 378.005C244.723 379.049 240.877 376.833 239.374 375.223C239.267 375.106 237.9 373.271 237.578 372.793C237.695 374.462 237.822 376.121 238.018 377.751C238.274 379.953 238.669 382.137 239.198 384.29C239.355 384.241 243.307 382.914 245.181 383.119C246.811 383.285 248.841 383.968 249.739 385.451C249.96 385.795 250.106 386.182 250.168 386.585C250.23 386.989 250.207 387.401 250.101 387.796C249.994 388.19 249.806 388.558 249.549 388.875C249.292 389.192 248.971 389.453 248.607 389.638C246.382 390.683 242.536 388.467 241.043 386.857C240.946 386.75 239.901 385.354 239.423 384.68L239.296 384.739C239.892 386.895 240.682 388.992 241.658 391.005C242.175 392.118 242.732 393.152 243.298 394.148C244.01 393.826 247.28 392.381 248.988 392.381C250.696 392.381 252.726 392.82 253.77 394.206C254.025 394.523 254.211 394.89 254.317 395.284C254.422 395.677 254.444 396.088 254.382 396.49C254.319 396.892 254.174 397.277 253.954 397.62C253.734 397.963 253.446 398.256 253.106 398.481C251.008 399.769 246.948 397.983 245.298 396.529C245.211 396.451 244.322 395.553 243.776 394.899C244.039 395.338 244.303 395.807 244.566 396.226C245.542 397.817 246.518 399.203 247.407 400.433C247.914 401.126 248.383 401.741 248.841 402.317C249.7 402.317 253.175 402.59 254.697 403.361C256.22 404.132 257.801 405.479 258.104 407.187C258.185 407.587 258.181 408 258.093 408.399C258.006 408.797 257.835 409.173 257.594 409.502C257.352 409.831 257.044 410.106 256.69 410.309C256.336 410.512 255.943 410.639 255.537 410.681C253.087 410.857 250.296 407.402 249.476 405.362C249.407 405.186 248.617 402.307 248.666 402.307H248.714C248.266 401.77 247.797 401.185 247.299 400.531C246.382 399.32 245.347 397.944 244.371 396.373C243.265 394.693 242.258 392.949 241.355 391.151C240.332 389.142 239.489 387.045 238.837 384.885C238.837 384.885 238.837 384.827 238.837 384.807C238.837 385.53 238.72 387.54 238.691 387.735C238.33 389.902 236.358 393.874 233.928 394.235C233.522 394.282 233.111 394.243 232.722 394.121C232.332 393.999 231.972 393.797 231.665 393.527C231.358 393.258 231.111 392.928 230.939 392.557C230.767 392.186 230.675 391.784 230.668 391.376C230.59 389.638 231.908 387.95 233.167 386.906C234.592 385.725 238.466 384.671 238.779 384.583C238.169 382.371 237.71 380.122 237.403 377.848C237.217 376.521 237.071 375.184 236.934 373.837C236.934 374.462 236.876 375.018 236.856 375.096C236.495 377.263 234.523 381.235 232.093 381.596C231.679 381.652 231.257 381.618 230.857 381.498C230.457 381.377 230.087 381.172 229.773 380.896C229.458 380.621 229.207 380.281 229.035 379.9C228.862 379.519 228.774 379.106 228.775 378.688C228.697 376.96 230.014 375.272 231.273 374.218C232.532 373.164 235.841 372.197 236.71 371.953C236.71 371.436 236.622 370.919 236.573 370.402C236.368 367.922 236.173 365.453 235.909 363.033C235.822 362.174 235.695 361.334 235.578 360.505C235.578 361.051 235.519 361.481 235.509 361.588C235.148 363.755 233.177 367.737 230.737 368.088C230.332 368.133 229.922 368.093 229.533 367.971C229.145 367.848 228.786 367.646 228.48 367.376C228.174 367.107 227.928 366.777 227.757 366.407C227.585 366.038 227.494 365.636 227.486 365.229C227.408 363.501 228.726 361.813 229.985 360.768C231.244 359.724 234.231 358.816 235.265 358.533C235.119 357.684 234.972 356.825 234.787 356.006C234.65 355.449 234.553 354.903 234.387 354.346L233.918 352.716C233.586 351.682 233.255 350.618 232.942 349.622C232.708 348.93 232.464 348.276 232.23 347.612C232.327 348.461 232.493 350.13 232.493 350.267C232.396 352.196 231.805 354.068 230.776 355.703C230.776 355.919 230.757 356.135 230.717 356.347C230.649 356.75 230.498 357.134 230.273 357.475C230.048 357.816 229.755 358.106 229.411 358.327C229.067 358.547 228.681 358.694 228.277 358.756C227.873 358.819 227.461 358.796 227.067 358.69C224.715 357.967 223.358 353.741 223.329 351.545C223.329 351.418 223.456 350.013 223.563 349.125C223.417 349.632 223.29 350.101 223.143 350.657C222.86 351.701 222.538 352.736 222.167 353.849C221.992 354.376 221.806 354.912 221.621 355.449C221.435 355.986 221.201 356.542 220.986 357.089C220.469 358.358 219.883 359.617 219.269 360.876C220.176 361.13 223.407 362.076 224.676 363.13C225.944 364.184 227.262 365.853 227.184 367.591C227.178 367.999 227.087 368.401 226.917 368.772C226.746 369.143 226.5 369.475 226.194 369.745C225.888 370.015 225.529 370.218 225.14 370.341C224.75 370.465 224.34 370.505 223.934 370.46C221.494 370.099 219.522 366.136 219.151 363.97C219.151 363.833 219.044 362.242 219.015 361.374C218.634 362.125 218.263 362.877 217.853 363.628C216.682 365.785 215.433 367.942 214.184 370.089L213.061 372.041C213.383 372.129 217.248 373.173 218.663 374.345C220.079 375.516 221.25 377.077 221.182 378.815C221.175 379.223 221.082 379.625 220.911 379.996C220.739 380.366 220.492 380.697 220.185 380.966C219.878 381.236 219.518 381.438 219.128 381.56C218.738 381.682 218.327 381.721 217.922 381.674C215.491 381.323 213.51 377.351 213.149 375.184C213.149 375.018 212.993 372.744 212.993 372.158C212.173 373.613 211.363 375.086 210.621 376.541C209.622 378.521 208.745 380.562 207.996 382.65C208.152 382.65 212.183 383.763 213.637 384.963C214.906 386.018 216.223 387.696 216.145 389.434C216.138 389.841 216.046 390.242 215.875 390.612C215.704 390.982 215.458 391.312 215.152 391.581C214.846 391.85 214.487 392.053 214.099 392.175C213.71 392.298 213.3 392.338 212.895 392.293C210.465 391.942 208.484 387.97 208.113 385.803C208.113 385.666 207.996 383.929 207.976 383.099H207.83C207.143 385.224 206.646 387.406 206.346 389.619C206.161 390.839 206.054 392.01 205.985 393.152C206.756 393.279 210.27 393.874 211.705 394.811C213.139 395.748 214.574 397.242 214.691 398.979C214.729 399.386 214.682 399.796 214.552 400.183C214.422 400.571 214.212 400.927 213.936 401.228C213.661 401.53 213.325 401.77 212.951 401.934C212.576 402.098 212.172 402.182 211.763 402.18C209.304 402.092 206.883 398.364 206.298 396.256C206.298 396.139 206.063 394.928 205.927 394.05C205.927 394.567 205.858 395.104 205.849 395.592C205.78 397.456 205.849 399.164 205.897 400.677C205.897 401.536 205.995 402.307 206.054 403.029C206.746 403.546 209.518 405.655 210.338 407.128C211.158 408.602 211.773 410.603 211.07 412.194C210.917 412.572 210.687 412.913 210.395 413.197C210.103 413.481 209.754 413.701 209.372 413.842C208.99 413.984 208.582 414.044 208.176 414.019C207.769 413.994 207.372 413.884 207.01 413.697C204.863 412.487 204.453 408.065 204.892 405.889C204.892 405.703 205.868 402.863 205.868 402.883C205.8 402.18 205.731 401.429 205.673 400.618C205.575 399.106 205.478 397.388 205.507 395.524C205.509 393.511 205.629 391.5 205.868 389.502C206.129 387.261 206.582 385.047 207.225 382.885V382.806C206.815 383.402 205.614 385.022 205.507 385.139C204.014 386.75 200.178 388.975 197.953 387.93C197.59 387.745 197.269 387.486 197.012 387.17C196.755 386.854 196.566 386.487 196.459 386.094C196.351 385.701 196.327 385.29 196.388 384.887C196.448 384.483 196.592 384.097 196.811 383.753C197.797 382.367 199.827 381.694 201.457 381.508Z" fill="#2F27CE"/>
<path d="M423.74 94.8965H151.172C147.469 94.8965 144.467 97.8985 144.467 101.602V366.576C144.467 370.279 147.469 373.281 151.172 373.281H423.74C427.443 373.281 430.445 370.279 430.445 366.576V101.602C430.445 97.8985 427.443 94.8965 423.74 94.8965Z" fill="white" stroke="#2F27CE" stroke-width="0.976" stroke-linecap="round" stroke-linejoin="round"/>
<path d="M423.925 94.8965H151.006C149.274 94.8965 147.612 95.5841 146.386 96.8083C145.16 98.0325 144.47 99.6933 144.467 101.426V112.952H430.416V101.426C430.413 99.7017 429.73 98.0483 428.514 96.8255C427.299 95.6026 425.65 94.9093 423.925 94.8965Z" fill="#2F27CE" stroke="#2F27CE" stroke-width="0.976" stroke-linecap="round" stroke-linejoin="round"/>
<path d="M158.19 103.612C158.192 104.145 158.035 104.667 157.741 105.111C157.446 105.556 157.026 105.902 156.534 106.108C156.042 106.313 155.5 106.368 154.976 106.265C154.453 106.162 153.972 105.907 153.595 105.53C153.217 105.154 152.959 104.674 152.855 104.151C152.75 103.628 152.803 103.086 153.006 102.593C153.21 102.101 153.555 101.679 153.998 101.383C154.442 101.086 154.963 100.928 155.496 100.928C156.208 100.931 156.89 101.214 157.395 101.717C157.899 102.219 158.185 102.9 158.19 103.612Z" fill="white" stroke="#2F27CE" stroke-width="0.976" stroke-linecap="round" stroke-linejoin="round"/>
<path d="M169.483 103.612C169.485 104.145 169.328 104.667 169.033 105.111C168.739 105.556 168.319 105.902 167.827 106.108C167.335 106.313 166.793 106.368 166.269 106.265C165.746 106.162 165.265 105.907 164.888 105.53C164.51 105.154 164.252 104.674 164.148 104.151C164.043 103.628 164.096 103.086 164.299 102.593C164.503 102.101 164.848 101.679 165.291 101.383C165.735 101.086 166.256 100.928 166.789 100.928C167.502 100.928 168.185 101.211 168.69 101.714C169.195 102.217 169.48 102.899 169.483 103.612Z" fill="white" stroke="#2F27CE" stroke-width="0.976" stroke-linecap="round" stroke-linejoin="round"/>
<path d="M180.775 103.612C180.777 104.146 180.62 104.668 180.325 105.112C180.03 105.557 179.609 105.903 179.116 106.109C178.624 106.314 178.081 106.368 177.558 106.264C177.034 106.161 176.554 105.904 176.176 105.527C175.799 105.149 175.542 104.668 175.438 104.145C175.335 103.621 175.389 103.079 175.594 102.586C175.799 102.094 176.146 101.673 176.59 101.378C177.035 101.083 177.557 100.926 178.091 100.928C178.802 100.931 179.483 101.214 179.986 101.717C180.489 102.22 180.772 102.901 180.775 103.612Z" fill="white" stroke="#2F27CE" stroke-width="0.976" stroke-linecap="round" stroke-linejoin="round"/>
<path d="M291.824 145.824V127.544H288.076V125.484H297.836V127.544H294.088V145.824H291.824Z" fill="#2F27CE"/>
<path d="M299.242 130.394C299.242 127.28 300.784 125.279 303.887 125.279C306.991 125.279 308.572 127.231 308.572 130.394V140.905C308.572 143.989 307.03 146.019 303.887 146.019C300.745 146.019 299.242 143.989 299.242 140.905V130.394ZM301.477 141.022C301.477 142.886 302.267 143.95 303.887 143.95C305.508 143.95 306.298 142.877 306.298 141.022V130.286C306.298 128.451 305.547 127.358 303.887 127.358C302.228 127.358 301.477 128.461 301.477 130.286V141.022Z" fill="#2F27CE"/>
<path d="M315.483 125.484C318.645 125.484 320.099 127.436 320.099 130.54V140.798C320.099 143.901 318.645 145.824 315.483 145.824H310.72V125.484H315.483ZM315.483 143.755C317.113 143.755 317.893 142.779 317.893 140.886V130.423C317.893 128.559 317.113 127.544 315.453 127.544H313.013V143.755H315.483Z" fill="#2F27CE"/>
<path d="M324.481 141.725L323.7 145.824H321.611L325.515 125.484H328.795L332.699 145.824H330.434L329.644 141.725H324.481ZM324.774 139.773H329.312L327.009 128.061L324.774 139.773Z" fill="#2F27CE"/>
<path d="M336.632 138.524L332.328 125.484H334.68L337.852 135.479L341.044 125.484H343.191L338.867 138.524V145.824H336.632V138.524Z" fill="#2F27CE"/>
<path d="M162.309 126.04V126.333H161.167V125.972C161.167 124.996 160.796 124.43 159.927 124.43C159.059 124.43 158.698 125.006 158.698 125.962C158.698 128.383 162.318 128.617 162.318 131.652C162.318 133.282 161.538 134.346 159.888 134.346C158.239 134.346 157.458 133.282 157.458 131.652V131.038H158.59V131.76C158.59 132.736 158.99 133.302 159.849 133.302C160.708 133.302 161.118 132.736 161.118 131.76C161.118 129.359 157.507 129.125 157.507 126.089C157.507 124.42 158.278 123.386 159.898 123.386C161.518 123.386 162.309 124.401 162.309 126.04Z" fill="#2F27CE"/>
<path d="M168.135 126.05V127.026H166.993V125.992C166.993 125.016 166.613 124.43 165.734 124.43C164.856 124.43 164.466 125.016 164.466 125.992V131.701C164.466 132.677 164.866 133.253 165.734 133.253C166.603 133.253 166.993 132.668 166.993 131.701V130.296H168.135V131.633C168.135 133.273 167.364 134.346 165.705 134.346C164.046 134.346 163.275 133.273 163.275 131.633V126.05C163.275 124.421 164.046 123.337 165.705 123.337C167.364 123.337 168.135 124.421 168.135 126.05Z" fill="#2F27CE"/>
<path d="M170.439 129.388V134.268H169.238V123.445H170.439V128.325H173.093V123.445H174.294V134.239H173.093V129.359L170.439 129.388Z" fill="#2F27CE"/>
<path d="M179.369 128.227V129.31H176.734V133.146H179.974V134.239H175.534V123.445H179.974V124.538H176.734V128.227H179.369Z" fill="#2F27CE"/>
<path d="M183.615 123.445C185.293 123.445 186.065 124.421 186.065 126.129V131.575C186.065 133.224 185.293 134.239 183.615 134.239H181.087V123.445H183.615ZM183.615 133.146C184.483 133.146 184.893 132.609 184.893 131.623V126.07C184.893 125.094 184.483 124.538 183.605 124.538H182.307V133.146H183.615Z" fill="#2F27CE"/>
<path d="M188.368 131.702C188.368 132.678 188.749 133.253 189.627 133.253C190.505 133.253 190.876 132.668 190.876 131.702V123.445H192.008V131.633C192.008 133.273 191.247 134.366 189.588 134.366C187.929 134.366 187.177 133.273 187.177 131.633V123.445H188.368V131.702Z" fill="#2F27CE"/>
<path d="M193.16 134.239V123.445H194.37V133.146H197.455V134.239H193.16Z" fill="#2F27CE"/>
<path d="M202.208 128.227V129.31H199.563V133.146H202.803V134.239H198.362V123.445H202.803V124.538H199.563V128.227H202.208Z" fill="#2F27CE"/>
<path d="M231.898 158.444V158.766C231.954 159.198 231.871 159.636 231.66 160.017C231.449 160.398 231.122 160.702 230.726 160.884C231.127 161.073 231.457 161.385 231.667 161.775C231.878 162.165 231.959 162.612 231.898 163.051V163.812C231.898 164.459 231.641 165.08 231.183 165.537C230.725 165.995 230.105 166.252 229.458 166.252C228.81 166.252 228.19 165.995 227.732 165.537C227.275 165.08 227.018 164.459 227.018 163.812V163.051C226.955 162.609 227.037 162.159 227.252 161.769C227.466 161.378 227.802 161.068 228.208 160.884C227.806 160.709 227.472 160.408 227.257 160.025C227.042 159.643 226.958 159.201 227.018 158.766V158.444C227.018 157.797 227.275 157.176 227.732 156.719C228.19 156.261 228.81 156.004 229.458 156.004C230.105 156.004 230.725 156.261 231.183 156.719C231.641 157.176 231.898 157.797 231.898 158.444ZM228.189 158.444V158.942C228.189 159.918 228.667 160.386 229.477 160.386C230.287 160.386 230.765 159.937 230.765 158.942V158.444C230.765 157.39 230.287 156.912 229.477 156.912C228.667 156.912 228.189 157.419 228.189 158.473V158.444ZM228.189 162.885V163.753C228.189 164.807 228.657 165.305 229.477 165.305C230.297 165.305 230.756 164.807 230.765 163.753V162.885C230.765 161.909 230.326 161.411 229.477 161.411C228.628 161.411 228.189 161.918 228.189 162.914V162.885Z" fill="#2F27CE"/>
<path d="M234.035 159.264V160.689H232.932V159.264H234.035ZM234.035 164.856V166.271H232.932V164.856H234.035Z" fill="#2F27CE"/>
<path d="M235.118 158.493C235.118 156.921 235.899 155.906 237.47 155.906C239.042 155.906 239.822 156.882 239.822 158.493V163.783C239.822 165.354 239.051 166.379 237.47 166.379C235.889 166.379 235.118 165.354 235.118 163.783V158.493ZM236.25 163.851C236.25 164.827 236.641 165.334 237.47 165.334C238.3 165.334 238.681 164.778 238.681 163.851V158.434C238.681 157.458 238.3 156.941 237.47 156.941C236.641 156.941 236.25 157.497 236.25 158.434V163.851Z" fill="#2F27CE"/>
<path d="M240.818 158.493C240.818 156.921 241.599 155.906 243.171 155.906C244.742 155.906 245.523 156.882 245.523 158.493V163.783C245.523 165.354 244.752 166.379 243.171 166.379C241.589 166.379 240.818 165.354 240.818 163.783V158.493ZM241.951 163.851C241.951 164.827 242.341 165.334 243.171 165.334C244 165.334 244.381 164.778 244.381 163.851V158.434C244.381 157.458 244 156.941 243.171 156.941C242.341 156.941 241.951 157.497 241.951 158.434V163.851Z" fill="#2F27CE"/>
<path d="M257.478 157.878C257.047 158.139 256.557 158.29 256.053 158.317V157.341C256.459 157.351 256.855 157.221 257.176 156.971C257.496 156.722 257.72 156.37 257.81 155.975H258.64V166.232H257.507L257.478 157.878Z" fill="#2F27CE"/>
<path d="M260.25 158.493C260.25 156.921 261.021 155.906 262.592 155.906C264.164 155.906 264.954 156.882 264.954 158.493V163.783C264.954 165.354 264.174 166.379 262.592 166.379C261.011 166.379 260.25 165.354 260.25 163.783V158.493ZM261.372 163.851C261.372 164.827 261.773 165.334 262.592 165.334C263.412 165.334 263.812 164.778 263.812 163.851V158.434C263.812 157.458 263.432 156.941 262.592 156.941C261.753 156.941 261.372 157.497 261.372 158.434V163.851Z" fill="#2F27CE"/>
<path d="M267.131 159.264V160.689H266.038V159.264H267.131ZM267.131 164.856V166.271H266.038V164.856H267.131Z" fill="#2F27CE"/>
<path d="M268.224 158.493C268.224 156.921 268.995 155.906 270.567 155.906C272.138 155.906 272.928 156.882 272.928 158.493V163.783C272.928 165.354 272.148 166.379 270.567 166.379C268.985 166.379 268.224 165.354 268.224 163.783V158.493ZM269.347 163.851C269.347 164.827 269.747 165.334 270.567 165.334C271.386 165.334 271.787 164.778 271.787 163.851V158.434C271.787 157.458 271.396 156.941 270.567 156.941C269.737 156.941 269.347 157.497 269.347 158.434V163.851Z" fill="#2F27CE"/>
<path d="M273.924 158.493C273.924 156.921 274.695 155.906 276.266 155.906C277.838 155.906 278.628 156.882 278.628 158.493V163.783C278.628 165.354 277.847 166.379 276.266 166.379C274.685 166.379 273.924 165.354 273.924 163.783V158.493ZM275.046 163.851C275.046 164.827 275.446 165.334 276.266 165.334C277.086 165.334 277.486 164.778 277.486 163.851V158.434C277.486 157.458 277.106 156.941 276.266 156.941C275.427 156.941 275.046 157.497 275.046 158.434V163.851Z" fill="#2F27CE"/>
<path d="M291.307 157.878C290.875 158.139 290.386 158.29 289.882 158.317V157.341C290.287 157.351 290.684 157.221 291.004 156.971C291.324 156.722 291.549 156.37 291.639 155.975H292.439V166.232H291.307V157.878Z" fill="#2F27CE"/>
<path d="M298.783 158.502C298.783 161.596 295.308 162.709 295.288 165.071V165.237H298.656V166.271H294.166V165.393C294.166 162.084 297.641 161.44 297.641 158.561C297.641 157.507 297.289 156.951 296.43 156.951C295.571 156.951 295.23 157.546 295.23 158.454V159.361H294.166V158.532C294.166 156.96 294.879 155.916 296.469 155.916C298.06 155.916 298.783 156.941 298.783 158.502Z" fill="#2F27CE"/>
<path d="M300.94 159.264V160.689H299.837V159.264H300.94ZM300.94 164.856V166.271H299.837V164.856H300.94Z" fill="#2F27CE"/>
<path d="M302.023 158.493C302.023 156.921 302.794 155.906 304.366 155.906C305.937 155.906 306.728 156.882 306.728 158.493V163.783C306.728 165.354 305.947 166.379 304.366 166.379C302.785 166.379 302.023 165.354 302.023 163.783V158.493ZM303.146 163.851C303.146 164.827 303.546 165.334 304.366 165.334C305.186 165.334 305.586 164.778 305.586 163.851V158.434C305.586 157.458 305.195 156.941 304.366 156.941C303.536 156.941 303.146 157.497 303.146 158.434V163.851Z" fill="#2F27CE"/>
<path d="M307.723 158.493C307.723 156.921 308.494 155.906 310.066 155.906C311.637 155.906 312.427 156.882 312.427 158.493V163.783C312.427 165.354 311.647 166.379 310.066 166.379C308.484 166.379 307.723 165.354 307.723 163.783V158.493ZM308.846 163.851C308.846 164.827 309.246 165.334 310.066 165.334C310.885 165.334 311.286 164.778 311.286 163.851V158.434C311.286 157.458 310.905 156.941 310.066 156.941C309.226 156.941 308.846 157.497 308.846 158.434V163.851Z" fill="#2F27CE"/>
<path d="M328.912 158.502C328.912 161.596 325.437 162.709 325.418 165.071V165.237H328.795V166.271H324.295V165.393C324.295 162.084 327.76 161.44 327.76 158.561C327.76 157.507 327.409 156.951 326.56 156.951C325.711 156.951 325.359 157.546 325.359 158.454V159.361H324.295V158.532C324.295 156.96 325.008 155.916 326.589 155.916C328.17 155.916 328.912 156.941 328.912 158.502Z" fill="#2F27CE"/>
<path d="M331.059 159.264V160.689H329.966V159.264H331.059ZM331.059 164.856V166.271H329.966V164.856H331.059Z" fill="#2F27CE"/>
<path d="M332.143 158.493C332.143 156.921 332.923 155.906 334.495 155.906C336.066 155.906 336.847 156.882 336.847 158.493V163.783C336.847 165.354 336.076 166.379 334.495 166.379C332.914 166.379 332.143 165.354 332.143 163.783V158.493ZM333.275 163.851C333.275 164.827 333.675 165.334 334.495 165.334C335.315 165.334 335.705 164.778 335.705 163.851V158.434C335.705 157.458 335.324 156.941 334.495 156.941C333.665 156.941 333.275 157.497 333.275 158.434V163.851Z" fill="#2F27CE"/>
<path d="M337.842 158.493C337.842 156.921 338.623 155.906 340.194 155.906C341.766 155.906 342.556 156.882 342.556 158.493V163.783C342.556 165.354 341.776 166.379 340.194 166.379C338.613 166.379 337.842 165.354 337.842 163.783V158.493ZM338.974 163.851C338.974 164.827 339.375 165.334 340.194 165.334C341.014 165.334 341.405 164.778 341.405 163.851V158.434C341.405 157.458 341.024 156.941 340.194 156.941C339.365 156.941 338.974 157.497 338.974 158.434V163.851Z" fill="#2F27CE"/>
<path d="M361.032 164.202V166.271H359.91V164.202H356.601V163.168L359.783 156.014H361.032V163.168H361.852V164.202H361.032ZM357.655 163.168H359.91V158.112L357.655 163.168Z" fill="#2F27CE"/>
<path d="M363.823 159.264V160.689H362.73V159.264H363.823ZM363.823 164.856V166.271H362.73V164.856H363.823Z" fill="#2F27CE"/>
<path d="M364.907 158.493C364.907 156.921 365.688 155.906 367.259 155.906C368.831 155.906 369.612 156.882 369.612 158.493V163.783C369.612 165.354 368.841 166.379 367.259 166.379C365.678 166.379 364.907 165.354 364.907 163.783V158.493ZM366.039 163.851C366.039 164.827 366.44 165.334 367.259 165.334C368.079 165.334 368.47 164.778 368.47 163.851V158.434C368.47 157.458 368.089 156.941 367.259 156.941C366.43 156.941 366.039 157.497 366.039 158.434V163.851Z" fill="#2F27CE"/>
<path d="M370.616 158.493C370.616 156.921 371.387 155.906 372.959 155.906C374.53 155.906 375.321 156.882 375.321 158.493V163.783C375.321 165.354 374.54 166.379 372.959 166.379C371.377 166.379 370.616 165.354 370.616 163.783V158.493ZM371.739 163.851C371.739 164.827 372.139 165.334 372.959 165.334C373.778 165.334 374.179 164.778 374.179 163.851V158.434C374.179 157.458 373.788 156.941 372.959 156.941C372.129 156.941 371.739 157.497 371.739 158.434V163.851Z" fill="#2F27CE"/>
<path d="M395.924 158.473V158.668H394.85V158.405C394.85 157.429 394.47 156.941 393.64 156.941C392.811 156.941 392.391 157.497 392.391 158.59V160.894C392.509 160.554 392.736 160.262 393.035 160.063C393.335 159.864 393.691 159.769 394.05 159.791C395.368 159.791 395.953 160.767 395.953 162.231V163.783C395.953 165.354 395.173 166.379 393.601 166.379C392.03 166.379 391.249 165.354 391.249 163.783V158.551C391.249 156.921 391.981 155.906 393.601 155.906C395.221 155.906 395.924 156.912 395.924 158.473ZM392.352 162.319V163.851C392.352 164.827 392.733 165.334 393.562 165.334C394.392 165.334 394.782 164.778 394.782 163.851V162.319C394.782 161.391 394.392 160.835 393.562 160.835C392.733 160.835 392.352 161.391 392.352 162.319Z" fill="#2F27CE"/>
<path d="M398.12 159.264V160.689H397.017V159.264H398.12ZM398.12 164.856V166.271H397.017V164.856H398.12Z" fill="#2F27CE"/>
<path d="M399.184 158.493C399.184 156.921 399.965 155.906 401.526 155.906C403.088 155.906 403.888 156.882 403.888 158.493V163.783C403.888 165.354 403.117 166.379 401.526 166.379C399.936 166.379 399.184 165.354 399.184 163.783V158.493ZM400.316 163.851C400.316 164.827 400.707 165.334 401.526 165.334C402.346 165.334 402.746 164.778 402.746 163.851V158.434C402.746 157.458 402.366 156.941 401.526 156.941C400.687 156.941 400.316 157.497 400.316 158.434V163.851Z" fill="#2F27CE"/>
<path d="M404.903 158.493C404.903 156.921 405.684 155.906 407.255 155.906C408.827 155.906 409.608 156.882 409.608 158.493V163.783C409.608 165.354 408.837 166.379 407.255 166.379C405.674 166.379 404.903 165.354 404.903 163.783V158.493ZM406.035 163.851C406.035 164.827 406.426 165.334 407.255 165.334C408.085 165.334 408.466 164.778 408.466 163.851V158.434C408.466 157.458 408.085 156.941 407.255 156.941C406.426 156.941 406.035 157.497 406.035 158.434V163.851Z" fill="#2F27CE"/>
<path d="M253.282 280.649H222.03V310.095H253.282V280.649Z" stroke="#ADADAD" stroke-width="0.976" stroke-miterlimit="10"/>
<path d="M285.441 280.649H254.189V310.095H285.441V280.649Z" stroke="#ADADAD" stroke-width="0.976" stroke-miterlimit="10"/>
<path d="M317.6 280.649H286.349V310.095H317.6V280.649Z" stroke="#ADADAD" stroke-width="0.976" stroke-miterlimit="10"/>
<path d="M349.77 280.649H318.518V310.095H349.77V280.649Z" stroke="#ADADAD" stroke-width="0.976" stroke-miterlimit="10"/>
<path d="M381.929 280.649H350.677V310.095H381.929V280.649Z" stroke="#ADADAD" stroke-width="0.976" stroke-miterlimit="10"/>
<path d="M414.225 280.649H382.973V310.095H414.225V280.649Z" stroke="#ADADAD" stroke-width="0.976" stroke-miterlimit="10"/>
<path d="M157.771 172.459H208.376" stroke="#ADADAD" stroke-width="0.976" stroke-miterlimit="10"/>
<path d="M157.771 178.013H208.376" stroke="#ADADAD" stroke-width="0.976" stroke-miterlimit="10"/>
<path d="M157.771 183.556H208.376" stroke="#ADADAD" stroke-width="0.976" stroke-miterlimit="10"/>
<path d="M157.771 189.1H208.376" stroke="#ADADAD" stroke-width="0.976" stroke-miterlimit="10"/>
<path d="M157.771 194.644H208.376" stroke="#ADADAD" stroke-width="0.976" stroke-miterlimit="10"/>
<path d="M157.771 200.197H208.376" stroke="#ADADAD" stroke-width="0.976" stroke-miterlimit="10"/>
<path d="M157.771 205.741H208.376" stroke="#ADADAD" stroke-width="0.976" stroke-miterlimit="10"/>
<path d="M157.771 211.285H208.376" stroke="#ADADAD" stroke-width="0.976" stroke-miterlimit="10"/>
<path d="M157.771 295.982H208.376" stroke="#ADADAD" stroke-width="0.976" stroke-miterlimit="10"/>
<path d="M157.771 301.525H208.376" stroke="#ADADAD" stroke-width="0.976" stroke-miterlimit="10"/>
<path d="M157.771 307.069H208.376" stroke="#ADADAD" stroke-width="0.976" stroke-miterlimit="10"/>
<path d="M157.771 312.613H208.376" stroke="#ADADAD" stroke-width="0.976" stroke-miterlimit="10"/>
<path d="M157.771 318.166H208.376" stroke="#ADADAD" stroke-width="0.976" stroke-miterlimit="10"/>
<path d="M157.771 323.71H208.376" stroke="#ADADAD" stroke-width="0.976" stroke-miterlimit="10"/>
<path d="M157.771 329.253H208.376" stroke="#ADADAD" stroke-width="0.976" stroke-miterlimit="10"/>
<path d="M157.771 334.797H208.376" stroke="#ADADAD" stroke-width="0.976" stroke-miterlimit="10"/>
<path d="M253.282 172.488H222.03V201.934H253.282V172.488Z" stroke="#ADADAD" stroke-width="0.976" stroke-miterlimit="10"/>
<path d="M285.441 172.488H254.189V201.934H285.441V172.488Z" fill="#2F27CE" stroke="#ADADAD" stroke-width="0.976" stroke-miterlimit="10"/>
<path d="M317.6 172.488H286.349V201.934H317.6V172.488Z" fill="#2F27CE" stroke="#ADADAD" stroke-width="0.976" stroke-miterlimit="10"/>
<path d="M349.77 172.488H318.518V201.934H349.77V172.488Z" stroke="#ADADAD" stroke-width="0.976" stroke-miterlimit="10"/>
<path d="M381.929 172.488H350.677V201.934H381.929V172.488Z" stroke="#ADADAD" stroke-width="0.976" stroke-miterlimit="10"/>
<path d="M414.225 172.488H382.973V201.934H414.225V172.488Z" stroke="#ADADAD" stroke-width="0.976" stroke-miterlimit="10"/>
<path d="M259.675 180.882H281.527" stroke="#ADADAD" stroke-width="0.976" stroke-miterlimit="10"/>
<path d="M259.675 184.21H281.527" stroke="#ADADAD" stroke-width="0.976" stroke-miterlimit="10"/>
<path d="M259.675 187.539H281.527" stroke="#ADADAD" stroke-width="0.976" stroke-miterlimit="10"/>
<path d="M259.675 190.857H281.527" stroke="#ADADAD" stroke-width="0.976" stroke-miterlimit="10"/>
<path d="M259.675 194.185H281.527" stroke="#ADADAD" stroke-width="0.976" stroke-miterlimit="10"/>
<path d="M253.282 208.513H222.03V237.959H253.282V208.513Z" stroke="#ADADAD" stroke-width="0.976" stroke-miterlimit="10"/>
<path d="M285.441 208.513H254.189V237.959H285.441V208.513Z" fill="#2F27CE" stroke="#ADADAD" stroke-width="0.976" stroke-miterlimit="10"/>
<path d="M317.6 208.513H286.349V237.959H317.6V208.513Z" stroke="#ADADAD" stroke-width="0.976" stroke-miterlimit="10"/>
<path d="M349.77 208.513H318.518V237.959H349.77V208.513Z" stroke="#ADADAD" stroke-width="0.976" stroke-miterlimit="10"/>
<path d="M381.929 208.513H350.677V237.959H381.929V208.513Z" stroke="#ADADAD" stroke-width="0.976" stroke-miterlimit="10"/>
<path d="M414.225 208.513H382.973V237.959H414.225V208.513Z" stroke="#ADADAD" stroke-width="0.976" stroke-miterlimit="10"/>
<path d="M259.675 216.516H281.527" stroke="#ADADAD" stroke-width="0.976" stroke-miterlimit="10"/>
<path d="M259.675 219.834H281.527" stroke="#ADADAD" stroke-width="0.976" stroke-miterlimit="10"/>
<path d="M259.675 223.163H281.527" stroke="#ADADAD" stroke-width="0.976" stroke-miterlimit="10"/>
<path d="M259.675 226.491H281.527" stroke="#ADADAD" stroke-width="0.976" stroke-miterlimit="10"/>
<path d="M259.675 229.819H281.527" stroke="#ADADAD" stroke-width="0.976" stroke-miterlimit="10"/>
<path d="M253.282 244.527H222.03V273.973H253.282V244.527Z" stroke="#ADADAD" stroke-width="0.976" stroke-miterlimit="10"/>
<path d="M285.441 244.527H254.189V273.973H285.441V244.527Z" stroke="#ADADAD" stroke-width="0.976" stroke-miterlimit="10"/>
<path d="M317.6 244.527H286.349V273.973H317.6V244.527Z" stroke="#ADADAD" stroke-width="0.976" stroke-miterlimit="10"/>
<path d="M349.77 244.527H318.518V273.973H349.77V244.527Z" stroke="#ADADAD" stroke-width="0.976" stroke-miterlimit="10"/>
<path d="M381.929 244.527H350.677V273.973H381.929V244.527Z" fill="#2F27CE" stroke="#ADADAD" stroke-width="0.976" stroke-miterlimit="10"/>
<path d="M414.225 244.527H382.973V273.973H414.225V244.527Z" stroke="#ADADAD" stroke-width="0.976" stroke-miterlimit="10"/>
<path d="M356.582 252.618H378.435" stroke="#ADADAD" stroke-width="0.976" stroke-miterlimit="10"/>
<path d="M356.582 255.946H378.435" stroke="#ADADAD" stroke-width="0.976" stroke-miterlimit="10"/>
<path d="M356.582 259.265H378.435" stroke="#ADADAD" stroke-width="0.976" stroke-miterlimit="10"/>
<path d="M356.582 262.593H378.435" stroke="#ADADAD" stroke-width="0.976" stroke-miterlimit="10"/>
<path d="M356.582 265.921H378.435" stroke="#ADADAD" stroke-width="0.976" stroke-miterlimit="10"/>
<path d="M253.282 316.761H222.03V346.207H253.282V316.761Z" stroke="#ADADAD" stroke-width="0.976" stroke-miterlimit="10"/>
<path d="M285.441 316.761H254.189V346.207H285.441V316.761Z" stroke="#ADADAD" stroke-width="0.976" stroke-miterlimit="10"/>
<path d="M317.6 316.761H286.349V346.207H317.6V316.761Z" fill="#2F27CE" stroke="#ADADAD" stroke-width="0.976" stroke-miterlimit="10"/>
<path d="M349.77 316.761H318.518V346.207H349.77V316.761Z" fill="#2F27CE" stroke="#ADADAD" stroke-width="0.976" stroke-miterlimit="10"/>
<path d="M381.929 316.761H350.677V346.207H381.929V316.761Z" fill="#2F27CE" stroke="#ADADAD" stroke-width="0.976" stroke-miterlimit="10"/>
<path d="M414.225 316.761H382.973V346.207H414.225V316.761Z" stroke="#ADADAD" stroke-width="0.976" stroke-miterlimit="10"/>
<path d="M291.501 324.823H313.354" stroke="#ADADAD" stroke-width="0.976" stroke-miterlimit="10"/>
<path d="M291.501 328.151H313.354" stroke="#ADADAD" stroke-width="0.976" stroke-miterlimit="10"/>
<path d="M291.501 331.479H313.354" stroke="#ADADAD" stroke-width="0.976" stroke-miterlimit="10"/>
<path d="M291.501 334.797H313.354" stroke="#ADADAD" stroke-width="0.976" stroke-miterlimit="10"/>
<path d="M291.501 338.125H313.354" stroke="#ADADAD" stroke-width="0.976" stroke-miterlimit="10"/>
<path d="M323.33 324.823H345.182" stroke="#ADADAD" stroke-width="0.976" stroke-miterlimit="10"/>
<path d="M323.33 328.151H345.182" stroke="#ADADAD" stroke-width="0.976" stroke-miterlimit="10"/>
<path d="M323.33 331.479H345.182" stroke="#ADADAD" stroke-width="0.976" stroke-miterlimit="10"/>
<path d="M323.33 334.797H345.182" stroke="#ADADAD" stroke-width="0.976" stroke-miterlimit="10"/>
<path d="M323.33 338.125H345.182" stroke="#ADADAD" stroke-width="0.976" stroke-miterlimit="10"/>
<path d="M355.157 324.823H377.01" stroke="#ADADAD" stroke-width="0.976" stroke-miterlimit="10"/>
<path d="M355.157 328.151H377.01" stroke="#ADADAD" stroke-width="0.976" stroke-miterlimit="10"/>
<path d="M355.157 331.479H377.01" stroke="#ADADAD" stroke-width="0.976" stroke-miterlimit="10"/>
<path d="M355.157 334.797H377.01" stroke="#ADADAD" stroke-width="0.976" stroke-miterlimit="10"/>
<path d="M355.157 338.125H377.01" stroke="#ADADAD" stroke-width="0.976" stroke-miterlimit="10"/>
<path d="M135.547 110.825C126.704 104.276 115.05 104.969 108.053 109.351C101.055 113.733 98.8879 121.619 96.9262 127.017C93.0222 137.753 84.6383 144.136 75.5615 150.333C66.7775 156.355 55.3681 165.178 61.39 177.212C64.1131 182.668 67.5193 186.416 62.366 195.278C57.2127 204.14 51.7959 208.239 55.534 216.75C59.2721 225.261 64.0545 238.573 84.1699 233.801C104.285 229.028 110.424 206.18 112.474 197.689C114.523 189.198 124.371 185.713 131.564 179.613C138.758 173.513 138.045 163.929 135.995 157.8C134.434 153.095 132.677 146.4 138.055 141.071L138.758 141.286C138.758 141.286 149.562 136.406 151.358 133.429C153.154 130.452 144.379 117.364 135.547 110.825Z" fill="#2F27CE" stroke="#2F27CE" stroke-width="0.976" stroke-linecap="round" stroke-linejoin="round"/>
<path d="M151.28 168.37C151.28 168.37 172.323 184.62 177.808 188.046C183.293 191.472 196.576 197.884 199.543 200.177C202.51 202.471 197.943 212.299 191.54 215.959C185.138 219.619 179.184 215.501 175.758 213.666C172.332 211.831 149.406 196.966 149.406 196.966L151.28 168.37Z" fill="#919191" stroke="#2F27CE" stroke-width="0.976" stroke-linecap="round" stroke-linejoin="round"/>
<path d="M155.975 178.042L152.402 198.528L160.532 182.268" stroke="#2F27CE" stroke-width="0.976" stroke-linecap="round" stroke-linejoin="round"/>
<path d="M158.346 275.232C158.346 275.232 152.861 275.457 146.634 269.737C140.407 264.018 138.826 261.5 138.826 261.5C138.826 261.5 135.664 229.682 135.664 226.705C135.664 223.729 138.221 208.864 140.544 201.544C142.866 194.224 147.18 202.92 147.18 202.92C147.18 202.92 152.441 254.16 153.358 259.196C154.276 264.233 158.346 275.232 158.346 275.232Z" fill="#787878" stroke="#2F27CE" stroke-width="0.976" stroke-linecap="round" stroke-linejoin="round"/>
<path d="M139.978 331.381C139.978 331.381 133.732 346.919 133.488 354.425C133.244 361.93 134.786 373.252 128.998 385.95C123.21 398.647 117.784 417.26 116.876 422.95C115.968 428.64 121.17 444.217 123.864 449.302C126.558 454.387 125.504 454.006 122.644 453.908C120.507 453.913 118.407 453.353 116.556 452.285C114.705 451.218 113.169 449.68 112.103 447.828C109.058 442.714 110.23 439.532 108.199 437.678L106.111 435.813L104.315 446.852L101.816 446.413L104.09 432.173C104.09 432.173 103.837 428.942 105.31 427.556C106.784 426.17 109.078 421.954 109.078 421.954C109.078 421.954 111.537 401.995 110.922 388.37C110.308 374.745 109.878 366.146 111.498 360.476C113.118 354.805 113.177 353.009 113.372 347.29C113.567 341.571 113.431 334.768 113.46 333.694C113.489 332.621 139.978 331.381 139.978 331.381Z" fill="white"/>
<mask id="mask0_79_5" style="mask-type:luminance" maskUnits="userSpaceOnUse" x="101" y="331" width="39" height="123">
<path d="M139.978 331.381C139.978 331.381 133.732 346.919 133.488 354.425C133.244 361.93 134.786 373.252 128.998 385.95C123.21 398.647 117.784 417.26 116.876 422.95C115.968 428.64 121.17 444.217 123.864 449.302C126.558 454.387 125.504 454.006 122.644 453.908C120.507 453.913 118.407 453.353 116.556 452.285C114.705 451.218 113.169 449.68 112.103 447.828C109.058 442.714 110.23 439.532 108.199 437.678L106.111 435.813L104.315 446.852L101.816 446.413L104.09 432.173C104.09 432.173 103.837 428.942 105.31 427.556C106.784 426.17 109.078 421.954 109.078 421.954C109.078 421.954 111.537 401.995 110.922 388.37C110.308 374.745 109.878 366.146 111.498 360.476C113.118 354.805 113.177 353.009 113.372 347.29C113.567 341.571 113.431 334.768 113.46 333.694C113.489 332.621 139.978 331.381 139.978 331.381Z" fill="white"/>
</mask>
<g mask="url(#mask0_79_5)">
<path opacity="0.2" d="M113.411 333.714C113.411 334.495 113.411 338.36 113.411 342.615C116.524 343.259 124.147 344.118 136.513 341.034C138.211 335.783 139.977 331.381 139.977 331.381C139.977 331.381 113.45 332.64 113.411 333.714Z" fill="#2F27CE"/>
</g>
<path d="M139.978 331.381C139.978 331.381 133.732 346.919 133.488 354.425C133.244 361.93 134.786 373.252 128.998 385.95C123.21 398.647 117.784 417.26 116.876 422.95C115.968 428.64 121.17 444.217 123.864 449.302C126.558 454.387 125.504 454.006 122.644 453.908C120.507 453.913 118.407 453.353 116.556 452.285C114.705 451.218 113.169 449.68 112.103 447.828C109.058 442.714 110.23 439.532 108.199 437.678L106.111 435.813L104.315 446.852L101.816 446.413L104.09 432.173C104.09 432.173 103.837 428.942 105.31 427.556C106.784 426.17 109.078 421.954 109.078 421.954C109.078 421.954 111.537 401.995 110.922 388.37C110.308 374.745 109.878 366.146 111.498 360.476C113.118 354.805 113.177 353.009 113.372 347.29C113.567 341.571 113.431 334.768 113.46 333.694C113.489 332.621 139.978 331.381 139.978 331.381Z" stroke="#2F27CE" stroke-width="0.976" stroke-linecap="round" stroke-linejoin="round"/>
<path d="M123.864 449.321L123.581 448.755C117.452 450.59 114.797 444.402 111.625 437.043C110.11 433.509 108.077 430.219 105.594 427.283C105.476 427.4 105.369 427.517 105.262 427.615C103.788 429.001 104.042 432.232 104.042 432.232L101.768 446.471L104.266 446.911L106.062 435.872L108.151 437.736C110.229 439.591 109.058 442.772 112.055 447.887C113.12 449.739 114.657 451.276 116.508 452.344C118.358 453.412 120.459 453.972 122.595 453.967C125.504 454.026 126.558 454.416 123.864 449.321Z" fill="#2F27CE" stroke="#2F27CE" stroke-width="0.976" stroke-linecap="round" stroke-linejoin="round"/>
<path d="M101.26 440.332L101.631 453.245L103.417 453.303L104.373 443.65L101.26 440.332Z" fill="#2F27CE" stroke="#2F27CE" stroke-width="0.976" stroke-linecap="round" stroke-linejoin="round"/>
<path d="M91.0219 329.029C91.0219 329.029 95.0235 337.745 91.7148 351.243C88.4062 364.741 91.627 385.959 96.5948 399.37C101.563 412.78 101.104 424.931 101.729 427.81C102.353 430.689 101.084 436.38 101.309 440.332C101.533 444.285 108.141 450.941 109.468 453.128C110.796 455.314 120.839 455.656 123.347 455.743C125.855 455.831 126.275 453.333 124.538 452.201C122.8 451.068 119.062 444.5 119.062 444.5C119.062 444.5 113.411 431.812 112.835 427.469C112.26 423.125 110.249 397.671 111.147 392.333C112.045 386.994 115.178 357.392 116.154 349.555C117.13 341.717 117.862 330.64 117.862 330.64L91.0219 329.029Z" fill="white"/>
<mask id="mask1_79_5" style="mask-type:luminance" maskUnits="userSpaceOnUse" x="90" y="329" width="36" height="127">
<path d="M91.0219 329.029C91.0219 329.029 95.0235 337.745 91.7148 351.243C88.4062 364.741 91.627 385.959 96.5948 399.37C101.563 412.78 101.104 424.931 101.729 427.81C102.353 430.689 101.084 436.38 101.309 440.332C101.533 444.285 108.141 450.941 109.468 453.128C110.796 455.314 120.839 455.656 123.347 455.743C125.855 455.831 126.275 453.333 124.538 452.201C122.8 451.068 119.062 444.5 119.062 444.5C119.062 444.5 113.411 431.812 112.835 427.469C112.26 423.125 110.249 397.671 111.147 392.333C112.045 386.994 115.178 357.392 116.154 349.555C117.13 341.717 117.862 330.64 117.862 330.64L91.0219 329.029Z" fill="white"/>
</mask>
<g mask="url(#mask1_79_5)">
<path opacity="0.2" d="M116.944 341.659C117.471 335.852 117.813 330.64 117.813 330.64L91.0215 329.029C92.2167 332.102 92.8769 335.357 92.9735 338.653C97.385 340.224 105.232 342.088 116.944 341.659Z" fill="#2F27CE"/>
</g>
<path d="M91.0219 329.029C91.0219 329.029 95.0235 337.745 91.7148 351.243C88.4062 364.741 91.627 385.959 96.5948 399.37C101.563 412.78 101.104 424.931 101.729 427.81C102.353 430.689 101.084 436.38 101.309 440.332C101.533 444.285 108.141 450.941 109.468 453.128C110.796 455.314 120.839 455.656 123.347 455.743C125.855 455.831 126.275 453.333 124.538 452.201C122.8 451.068 119.062 444.5 119.062 444.5C119.062 444.5 113.411 431.812 112.835 427.469C112.26 423.125 110.249 397.671 111.147 392.333C112.045 386.994 115.178 357.392 116.154 349.555C117.13 341.717 117.862 330.64 117.862 330.64L91.0219 329.029Z" stroke="#2F27CE" stroke-width="0.976" stroke-linecap="round" stroke-linejoin="round"/>
<path d="M124.489 452.2C123.709 451.562 123.031 450.808 122.478 449.965C117.676 449.731 111.898 449.185 109.976 447.418C107.721 445.359 102.373 435.55 101.582 434.086C101.326 436.158 101.219 438.245 101.26 440.332C101.485 444.236 108.092 450.941 109.419 453.128C110.747 455.314 120.79 455.656 123.298 455.743C125.806 455.831 126.236 453.333 124.489 452.2Z" fill="#2F27CE" stroke="#2F27CE" stroke-width="0.976" stroke-linecap="round" stroke-linejoin="round"/>
<path d="M86.5123 230.824C86.5123 230.824 74.1659 267.912 75.0736 283.899C75.9813 299.885 85.1459 331.488 85.1459 331.488C85.1459 331.488 105.73 336.974 120.37 336.974C129.701 336.855 138.959 335.311 147.825 332.396C147.825 332.396 155.145 280.668 151.943 262.397C149.928 251.243 145.559 240.646 139.128 231.312L86.5123 230.824Z" fill="#2F27CE" stroke="#2F27CE" stroke-width="0.976" stroke-linecap="round" stroke-linejoin="round"/>
<path d="M97.0435 167.003C97.0435 167.003 108.931 161.743 114.885 161.743C120.838 161.743 133.868 171.805 135.927 173.64C137.987 175.475 145.307 196.283 146.449 202.003C147.591 207.722 139.129 232.883 139.129 232.883C139.129 232.883 123.805 236.085 112.367 235.636C100.928 235.187 95.8918 233.801 95.8918 233.801C95.8918 233.801 91.3241 210.923 89.0598 197.425C86.7955 183.927 84.2579 174.977 86.3173 171.581C88.3766 168.184 97.0435 167.003 97.0435 167.003Z" fill="white"/>
<mask id="mask2_79_5" style="mask-type:luminance" maskUnits="userSpaceOnUse" x="85" y="161" width="62" height="75">
<path d="M97.0435 167.003C97.0435 167.003 108.931 161.743 114.885 161.743C120.838 161.743 133.868 171.805 135.927 173.64C137.987 175.475 145.307 196.283 146.449 202.003C147.591 207.722 139.129 232.883 139.129 232.883C139.129 232.883 123.805 236.085 112.367 235.636C100.928 235.187 95.8918 233.801 95.8918 233.801C95.8918 233.801 91.3241 210.923 89.0598 197.425C86.7955 183.927 84.2579 174.977 86.3173 171.581C88.3766 168.184 97.0435 167.003 97.0435 167.003Z" fill="white"/>
</mask>
<g mask="url(#mask2_79_5)">
<path opacity="0.3" d="M139.129 232.883C139.129 232.883 147.6 207.722 146.449 202.003C145.297 196.283 137.987 175.465 135.927 173.64C135.303 173.074 133.643 171.747 131.477 170.175L130.003 172.313C130.003 172.313 137.616 194.224 137.869 202.725C138.113 210.66 131.037 231.712 130.061 234.425C135.332 233.684 139.129 232.883 139.129 232.883Z" fill="#2F27CE"/>
</g>
<path d="M97.0435 167.003C97.0435 167.003 108.931 161.743 114.885 161.743C120.838 161.743 133.868 171.805 135.927 173.64C137.987 175.475 145.307 196.283 146.449 202.003C147.591 207.722 139.129 232.883 139.129 232.883C139.129 232.883 123.805 236.085 112.367 235.636C100.928 235.187 95.8918 233.801 95.8918 233.801C95.8918 233.801 91.3241 210.923 89.0598 197.425C86.7955 183.927 84.2579 174.977 86.3173 171.581C88.3766 168.184 97.0435 167.003 97.0435 167.003Z" stroke="#2F27CE" stroke-width="0.976" stroke-linecap="round" stroke-linejoin="round"/>
<path d="M125.63 165.168C125.63 165.168 137.528 186.445 140.963 199.719C144.399 212.992 150.108 268.576 152.627 271.094C154.332 272.726 156.257 274.112 158.346 275.212C158.346 275.212 151.514 237.695 151.514 226.481C151.514 215.267 153.349 171.347 152.197 168.828C151.045 166.31 147.171 167.687 139.158 166.769C131.145 165.852 125.63 165.168 125.63 165.168Z" fill="#919191" stroke="#2F27CE" stroke-width="0.976" stroke-linecap="round" stroke-linejoin="round"/>
<path d="M106.081 160.571L68.017 175.006C68.017 175.006 69.3834 219.385 69.8421 225.104C70.3008 230.824 72.5944 233.801 75.7957 236.084C78.997 238.368 80.1389 235.635 80.1389 235.635C80.1389 235.635 73.7363 259.655 69.8421 267.843C65.9478 276.032 68.017 276.54 68.017 276.54C68.017 276.54 82.8814 282.942 93.637 279.516C104.392 276.091 107.594 268.302 107.594 268.302L101.611 198.128C101.611 198.128 101.611 177.993 102.753 173.415C103.895 168.838 106.081 160.571 106.081 160.571Z" fill="#919191" stroke="#2F27CE" stroke-width="0.976" stroke-linecap="round" stroke-linejoin="round"/>
<path d="M79.251 247.621C79.251 247.621 90.6311 247.943 97.4534 245.347V249.573C92.3911 250.255 87.287 250.582 82.179 250.549" stroke="#2F27CE" stroke-width="0.976" stroke-linecap="round" stroke-linejoin="round"/>
<path d="M76.0015 175.114C76.0015 175.114 86.0835 181.946 89.3336 192.682" stroke="#2F27CE" stroke-width="0.976" stroke-linecap="round" stroke-linejoin="round"/>
<path d="M106.082 160.571C105.063 161.405 104.131 162.341 103.3 163.363C101.992 164.993 98.42 172.527 96.263 174.811C94.106 177.095 95.287 177.593 96.1069 177.437C96.9267 177.28 104.774 174.509 106.247 173.835C107.478 173.33 108.736 172.893 110.015 172.527L121.795 184.142L125.075 172.361C125.075 172.361 137.343 173.337 138.817 173.503C140.29 173.669 141.432 172.849 140.29 172.849C139.148 172.849 129.652 168.106 128.344 167.452C127.036 166.798 125.231 162.865 121.307 160.249C117.384 157.633 108.873 156.814 106.082 160.571Z" fill="white" stroke="#2F27CE" stroke-width="0.976" stroke-linecap="round" stroke-linejoin="round"/>
<path d="M122.615 164.505L121.795 184.142C121.795 184.142 109.848 169.082 108.336 167.286C107.296 165.753 106.573 164.027 106.208 162.211L107.516 145.189C107.516 145.189 115.207 157.633 117.178 158.941C119.15 160.249 122.449 162.865 122.615 164.505Z" fill="white" stroke="#2F27CE" stroke-width="0.976" stroke-linecap="round" stroke-linejoin="round"/>
<path d="M117.218 158.941C115.266 157.633 107.555 145.189 107.555 145.189L106.579 157.936C108.082 160.971 119.628 167.764 121.551 168.077C121.851 168.132 122.154 168.165 122.459 168.174L122.615 164.505C122.449 162.865 119.179 160.249 117.218 158.941Z" fill="#2F27CE" stroke="#2F27CE" stroke-width="0.976" stroke-linecap="round" stroke-linejoin="round"/>
<path d="M136.688 124.567C136.688 124.567 119.179 134.883 113.938 137.333L111.01 138.153C111.01 138.153 107.242 132.756 105.437 133.897C103.631 135.039 102.655 137.987 103.641 140.612C104.516 142.456 105.862 144.035 107.545 145.19C107.545 145.19 107.711 153.047 108.862 155.994C110.014 158.942 121.999 165.979 123.951 166.301C125.903 166.623 127.719 166.301 128.704 164.505C129.69 162.709 135.898 155.34 138.679 145.19C141.461 135.039 139.802 126.207 136.688 124.567Z" fill="white" stroke="#2F27CE" stroke-width="0.976" stroke-linecap="round" stroke-linejoin="round"/>
<path d="M132.765 141.1L133.253 150.597L128.012 149.445" stroke="#2F27CE" stroke-width="0.976" stroke-linecap="round" stroke-linejoin="round"/>
<path d="M121.473 150.597C121.473 150.597 122.615 152.061 127.329 153.7" stroke="#2F27CE" stroke-width="0.976" stroke-linecap="round" stroke-linejoin="round"/>
<path d="M120.653 139.958C120.653 139.958 121.961 142.74 126.704 141.754" stroke="#2F27CE" stroke-width="0.976" stroke-linecap="round" stroke-linejoin="round"/>
<path d="M134.561 143.716C134.909 144.278 135.444 144.7 136.071 144.911C136.698 145.121 137.379 145.106 137.996 144.867" stroke="#2F27CE" stroke-width="0.976" stroke-linecap="round" stroke-linejoin="round"/>
<path d="M122 135.371C123.216 134.853 124.524 134.587 125.845 134.587C127.167 134.587 128.475 134.853 129.691 135.371" stroke="#2F27CE" stroke-width="0.976" stroke-linecap="round" stroke-linejoin="round"/>
<path d="M139.305 139.138C138.651 137.333 135.713 136.679 135.713 136.679" stroke="#2F27CE" stroke-width="0.976" stroke-linecap="round" stroke-linejoin="round"/>
<path d="M169.072 210.035L154.432 213.324C154.432 213.324 136.269 212.534 134.912 213.061C133.556 213.588 134.785 218.985 134.785 218.985C132.813 219.128 130.833 219.128 128.861 218.985C126.626 218.722 125.572 219.122 126.099 220.566C126.626 222.011 128.861 223.328 130.979 223.328C133.146 223.178 135.298 222.872 137.421 222.411C137.421 222.411 142.818 224.363 144.799 224.363C146.78 224.363 149.679 222.655 149.679 222.655C149.679 222.655 153.232 222.782 155.076 222.918C156.921 223.055 159.283 220.674 159.283 220.674L173.63 220.283L169.072 210.035Z" fill="white" stroke="#2F27CE" stroke-width="0.976" stroke-linecap="round" stroke-linejoin="round"/>
<path d="M132.482 212.143C132.482 212.143 129.056 212.407 129.056 213.461C129.056 214.515 131.828 222.411 131.828 222.411L137.352 222.938C137.352 222.938 138.143 222.674 137.479 221.62C136.713 220.64 135.831 219.755 134.854 218.985L134.98 213.061L132.482 212.143Z" fill="white" stroke="#2F27CE" stroke-width="0.976" stroke-linecap="round" stroke-linejoin="round"/>
<path d="M138.124 211.216C138.124 211.216 132.16 210.699 131.936 211.372C131.711 212.046 132.912 222.108 132.912 222.108C132.912 222.108 138.943 223.406 139.744 223.348C139.95 223.323 140.146 223.241 140.308 223.112C140.47 222.982 140.593 222.809 140.662 222.613C140.731 222.417 140.744 222.205 140.699 222.002C140.654 221.799 140.553 221.613 140.407 221.464C139.432 220.71 138.37 220.075 137.245 219.571L138.124 211.216Z" fill="white" stroke="#2F27CE" stroke-width="0.976" stroke-linecap="round" stroke-linejoin="round"/>
<path d="M141.569 210.562C141.569 210.562 135.644 209.586 135.381 210.298C135.117 211.011 135.644 221.093 135.644 221.093C135.644 221.093 141.569 222.801 142.35 222.801C142.557 222.789 142.758 222.719 142.928 222.599C143.099 222.479 143.232 222.314 143.314 222.123C143.396 221.931 143.423 221.721 143.393 221.515C143.362 221.309 143.275 221.115 143.14 220.956C142.217 220.141 141.202 219.436 140.115 218.858L141.569 210.562Z" fill="white" stroke="#2F27CE" stroke-width="0.976" stroke-linecap="round" stroke-linejoin="round"/>
<path d="M156.833 214.505C156.833 214.505 142.086 208.981 141.305 208.718C140.524 208.454 139.988 208.854 139.988 209.381C139.988 209.908 137.616 219.6 138.406 220.303C139.197 221.005 143.931 222.411 143.931 222.411C143.931 222.411 145.248 221.484 145.385 221.093C145.522 220.703 143.931 219.639 143.931 219.639L144.194 216.711L147.62 217.892" fill="white"/>
<path d="M156.833 214.505C156.833 214.505 142.086 208.981 141.305 208.718C140.524 208.454 139.988 208.854 139.988 209.381C139.988 209.908 137.616 219.6 138.406 220.303C139.197 221.005 143.931 222.411 143.931 222.411C143.931 222.411 145.248 221.484 145.385 221.093C145.522 220.703 143.931 219.639 143.931 219.639L144.194 216.711L147.62 217.892" stroke="#2F27CE" stroke-width="0.976" stroke-linecap="round" stroke-linejoin="round"/>
<path d="M158.277 212.27C158.277 212.27 161.576 216.174 159.995 220.303H163.411C163.411 220.303 164.729 213.725 161.703 211.88L158.277 212.27Z" fill="#2F27CE" stroke="#2F27CE" stroke-width="0.976" stroke-linecap="round" stroke-linejoin="round"/>
<path d="M163.412 210.298C163.412 210.298 165.744 213.344 166.34 223.562C166.457 225.456 191.023 222.147 197.864 220.829C204.706 219.512 207.341 216.925 207.868 211.216C208.395 205.506 202.071 199.767 197.337 197.796C192.604 195.824 163.412 210.298 163.412 210.298Z" fill="#919191" stroke="#2F27CE" stroke-width="0.976" stroke-linecap="round" stroke-linejoin="round"/>
<path d="M100.946 128.849L92.3407 133.136C91.3999 133.604 91.0171 134.747 91.4858 135.688L102.779 158.358C103.248 159.299 104.39 159.682 105.331 159.213L113.936 154.926C114.877 154.458 115.26 153.315 114.791 152.374L103.498 129.704C103.029 128.763 101.887 128.381 100.946 128.849Z" fill="#2F27CE" stroke="#2F27CE" stroke-width="0.976" stroke-linecap="round" stroke-linejoin="round"/>
<path d="M94.1347 174.811L96.4283 165.49L91.5483 150.099C91.5483 150.099 95.9696 138.807 96.7895 137.665C97.6093 136.523 99.7175 135.371 100.547 135.713C101.377 136.054 101.367 137.186 100.225 137.84C99.4188 138.415 98.7925 139.207 98.4194 140.124L95.9696 148.479L97.0823 150.304L100.196 140.807C100.196 140.807 109.194 139.665 109.682 139.665C110.17 139.665 112.142 139.831 111.156 141.139C110.609 141.902 109.793 142.428 108.872 142.613H112.63C112.63 142.613 113.938 143.267 113.118 144.253C112.298 145.238 106.745 146.702 106.745 146.702L104.617 153.417L108.706 148.664L112.796 148.01C112.796 148.01 115.577 148.664 115.089 149.816C114.601 150.968 112.161 150.304 112.161 150.304L109.702 151.612L105.944 158.444V166.954C105.944 169.082 102.177 176.783 102.177 176.783L94.1347 174.811Z" fill="white" stroke="#2F27CE" stroke-width="0.976" stroke-linecap="round" stroke-linejoin="round"/>
<path d="M108.873 142.574L103.3 143.882L100.362 153.378" stroke="#2F27CE" stroke-width="0.976" stroke-linecap="round" stroke-linejoin="round"/>
<path d="M92.2318 171.776L107.106 176.812C107.106 176.812 95.316 228.852 93.4421 233.615C90.4555 241.306 79.8659 239.715 75.513 238.349C71.16 236.982 68.681 228.511 69.7936 225.075C70.9062 221.64 92.2318 171.776 92.2318 171.776Z" fill="#919191" stroke="#2F27CE" stroke-width="0.976" stroke-linecap="round" stroke-linejoin="round"/>
</svg>
