<svg xmlns="http://www.w3.org/2000/svg" xmlns:xlink="http://www.w3.org/1999/xlink" width="500" zoomAndPan="magnify" viewBox="0 0 375 374.999991" height="500" preserveAspectRatio="xMidYMid meet" version="1.0"><defs><clipPath id="154f8a00da"><path d="M 82.433594 82.433594 L 292.566406 82.433594 L 292.566406 292.566406 L 82.433594 292.566406 Z M 82.433594 82.433594 " clip-rule="nonzero"/></clipPath><clipPath id="6c5a00ebb4"><path d="M 187.5 82.433594 C 129.472656 82.433594 82.433594 129.472656 82.433594 187.5 C 82.433594 245.527344 129.472656 292.566406 187.5 292.566406 C 245.527344 292.566406 292.566406 245.527344 292.566406 187.5 C 292.566406 129.472656 245.527344 82.433594 187.5 82.433594 Z M 187.5 82.433594 " clip-rule="nonzero"/></clipPath><clipPath id="ff35589d06"><path d="M 51.394531 291.066406 L 337.597656 291.066406 L 337.597656 375 L 51.394531 375 Z M 51.394531 291.066406 " clip-rule="nonzero"/></clipPath><clipPath id="743d00ff5a"><path d="M 194.445312 291.066406 C 115.441406 291.066406 51.394531 347.621094 51.394531 417.390625 C 51.394531 487.15625 115.441406 543.714844 194.445312 543.714844 C 273.453125 543.714844 337.5 487.15625 337.5 417.390625 C 337.5 347.621094 273.453125 291.066406 194.445312 291.066406 Z M 194.445312 291.066406 " clip-rule="nonzero"/></clipPath></defs><rect x="-37.5" width="450" fill="#ffffff" y="-37.499999" height="449.999989" fill-opacity="1"/><rect x="-37.5" width="450" fill="#d9d9d9" y="-37.499999" height="449.999989" fill-opacity="1"/><g clip-path="url(#154f8a00da)"><g clip-path="url(#6c5a00ebb4)"><path fill="#a6a6a6" d="M 82.433594 82.433594 L 292.566406 82.433594 L 292.566406 292.566406 L 82.433594 292.566406 Z M 82.433594 82.433594 " fill-opacity="1" fill-rule="nonzero"/></g></g><g clip-path="url(#ff35589d06)"><g clip-path="url(#743d00ff5a)"><path fill="#a6a6a6" d="M 51.394531 291.066406 L 337.597656 291.066406 L 337.597656 543.714844 L 51.394531 543.714844 Z M 51.394531 291.066406 " fill-opacity="1" fill-rule="nonzero"/></g></g></svg>