<svg width="29" height="28" viewBox="0 0 29 28" fill="none" xmlns="http://www.w3.org/2000/svg">
<path d="M20.2528 23.3254C19.1403 24.4039 17.9256 24.2336 16.7563 23.7227C15.5189 23.2005 14.3836 23.1778 13.0781 23.7227C11.4434 24.4266 10.5806 24.2222 9.6043 23.3254C4.06434 17.6152 4.88171 8.91924 11.1709 8.60137C12.7035 8.68084 13.7706 9.44145 14.6675 9.50956C16.007 9.2371 17.2899 8.45379 18.7203 8.55596C20.4345 8.69219 21.7286 9.37333 22.5801 10.5994C19.0381 12.7223 19.8782 17.3881 23.125 18.6936C22.4779 20.3965 21.6378 22.088 20.2415 23.3368L20.2528 23.3254ZM14.5539 8.53326C14.3836 6.00168 16.4384 3.91284 18.7997 3.7085C19.1289 6.63741 16.1433 8.81707 14.5539 8.53326Z" fill="black"/>
</svg>
