<svg width="85" height="47" viewBox="0 0 85 57" fill="none" xmlns="http://www.w3.org/2000/svg">
<g clip-path="url(#clip0_147_1759)">
<path d="M1.00554 33.2753C7.32989 37.7287 15.0454 41.0187 22.9176 39.7365C29.3403 38.6911 35.2319 34.4945 37.3309 28.2386L35.6709 28.4584C38.2905 32.0883 41.869 34.9238 46.0073 36.6485C50.1456 38.3732 54.6809 38.9194 59.1076 38.2262C63.2488 37.5048 67.1333 35.7376 70.3904 33.093C74.4191 29.865 76.6512 25.3262 79.3272 21.035C79.9875 19.9883 78.3215 19.0144 77.6675 20.0628C75.2952 23.8536 73.3396 27.9181 69.9569 30.9462C67.0086 33.5606 63.4239 35.3597 59.5586 36.165C51.1647 37.9086 42.3671 34.3186 37.2482 27.5263C37.1549 27.377 37.0203 27.2577 36.8606 27.1828C36.701 27.1078 36.5231 27.0804 36.3484 27.1038C36.1737 27.1272 36.0096 27.2004 35.8758 27.3147C35.7421 27.429 35.6443 27.5794 35.5945 27.7479C33.6664 33.6215 27.8584 37.3853 21.8915 38.2127C14.6731 39.2166 7.48751 36.2042 1.54036 32.3688C0.968041 31.9993 0.466743 32.8815 1.00893 33.2629L1.00554 33.2753Z" fill="#CED2FC"/>
<path d="M76.9763 20.183C72.9774 20.3985 68.8858 21.5265 64.9624 22.3318C63.8658 22.557 64.1314 24.2565 65.2223 24.2508C69.6622 24.208 74.0627 23.4316 78.2448 21.9534L77.0816 21.2831L78.3572 27.295C78.7391 29.0863 78.8851 31.2021 79.7583 32.8185C79.852 32.9677 79.9912 33.083 80.1554 33.1476C80.3196 33.2122 80.5002 33.2226 80.6705 33.1773C80.8409 33.132 80.9921 33.0334 81.1018 32.896C81.2116 32.7585 81.2741 32.5896 81.2802 32.4139C81.412 30.5877 80.6487 28.5658 80.2588 26.779L78.9469 20.7774C78.8775 20.5374 78.7175 20.3335 78.5005 20.2085C78.2835 20.0835 78.0266 20.0471 77.7836 20.1071C73.7577 21.5382 69.5181 22.2863 65.2412 22.3203L65.5012 24.2393C69.3362 23.3632 73.4773 22.6973 77.1419 21.2593C77.662 21.052 77.6597 20.1673 76.998 20.2023L76.9763 20.183Z" fill="#CED2FC"/>
<path d="M64.734 23.5224C67.3988 25.4011 70.0592 27.2875 72.7153 29.1817L76.5546 31.9368C77.7673 32.8214 78.9466 33.9782 80.3746 34.4657C80.5126 34.4996 80.6574 34.4928 80.7915 34.4461C80.9255 34.3995 81.0429 34.315 81.1295 34.203C81.2162 34.091 81.2683 33.9562 81.2794 33.8151C81.2906 33.674 81.2603 33.5326 81.1924 33.4081C80.3762 32.2761 79.1048 31.5832 77.9646 30.7785C76.5974 29.8186 75.2161 28.8616 73.8104 27.9448C70.9989 26.1112 68.1213 24.3891 65.1777 22.7787C65.0788 22.7242 64.9627 22.7102 64.8538 22.7395C64.7449 22.7688 64.6518 22.8392 64.5942 22.9358C64.5366 23.0324 64.519 23.1476 64.5451 23.2571C64.5712 23.3665 64.6389 23.4617 64.734 23.5224Z" fill="#CED2FC"/>
</g>
<defs>
<clipPath id="clip0_147_1759">
<rect width="78" height="36" fill="white" transform="translate(9.41748 0.875) rotate(15.1645)"/>
</clipPath>
</defs>
</svg>
