<svg width="64" height="77" viewBox="0 0 64 77" fill="none" xmlns="http://www.w3.org/2000/svg">
<path d="M62.24 11.2H1.76C0.8 11.2 0 11.84 0 12.8V50.56C0 51.52 0.8 52.16 1.6 52.16H62.08C63.04 52.16 63.68 51.36 63.68 50.56V12.8C64 11.84 63.2 11.2 62.24 11.2ZM17.44 57.12C17.44 58.08 18.08 58.72 19.04 58.72H22.72L17.44 76.8H20.96L23.04 69.6H40.64L42.72 76.8H46.24L40.96 58.72H44.64C45.6 58.72 46.24 58.08 46.24 57.12V54.72H17.44V57.12ZM26.4 58.72H37.76L40 66.24H24.16L26.4 58.72ZM41.76 7.2C41.76 6.4 40.96 5.6 40.16 5.6H34.08V0H30.08V5.6H24C23.04 5.6 22.4 6.4 22.4 7.2V8.8H41.76V7.2Z" fill="#2F27CE"/>
</svg>
