<svg width="28" height="28" viewBox="0 0 28 28" fill="none" xmlns="http://www.w3.org/2000/svg">
<g clip-path="url(#clip0_79_241)">
<path d="M9.49101 1.19902C6.76874 2.1434 4.42106 3.93586 2.7928 6.31313C1.16454 8.69039 0.341538 11.5272 0.444669 14.4067C0.547801 17.2863 1.57163 20.0569 3.36578 22.3116C5.15993 24.5663 7.62983 26.1862 10.4127 26.9334C12.6688 27.5156 15.0326 27.5412 17.3007 27.0079C19.3555 26.5464 21.2552 25.5592 22.8137 24.1429C24.4359 22.6238 25.6133 20.6914 26.2195 18.5533C26.8781 16.2281 26.9953 13.783 26.5622 11.4055H13.8929V16.661H21.2301C21.0834 17.4992 20.7692 18.2992 20.3062 19.0131C19.8431 19.727 19.2408 20.3402 18.5353 20.8159C17.6395 21.4088 16.6294 21.8076 15.5702 21.9866C14.5079 22.1842 13.4183 22.1842 12.3561 21.9866C11.2793 21.7643 10.2608 21.3199 9.36542 20.6818C7.92682 19.6635 6.84663 18.2168 6.27899 16.5481C5.70192 14.8482 5.70192 13.0054 6.27899 11.3055C6.68305 10.1139 7.35101 9.02905 8.23302 8.13178C9.24237 7.08611 10.5202 6.33866 11.9264 5.97144C13.3326 5.60422 14.8128 5.63141 16.2045 6.05003C17.2918 6.38363 18.286 6.96676 19.1079 7.75289C19.9352 6.92984 20.7611 6.10467 21.5856 5.27736C22.0113 4.83249 22.4753 4.40891 22.8946 3.95339C21.6399 2.78591 20.1672 1.8774 18.5609 1.27991C15.6356 0.217726 12.4348 0.189181 9.49101 1.19902Z" fill="white"/>
<path d="M9.49142 1.19908C12.4349 0.188553 15.6357 0.216347 18.5613 1.27783C20.1679 1.87939 21.6399 2.79227 22.8929 3.96409C22.4672 4.4196 22.0181 4.84532 21.5838 5.28806C20.7579 6.11253 19.9328 6.93416 19.1083 7.75295C18.2864 6.96682 17.2922 6.38369 16.2049 6.05009C14.8136 5.63 13.3335 5.60123 11.927 5.96695C10.5204 6.33267 9.24176 7.07875 8.2313 8.12332C7.34929 9.02059 6.68133 10.1055 6.27728 11.297L1.86475 7.88066C3.44416 4.7486 6.17883 2.35281 9.49142 1.19908Z" fill="#E33629"/>
<path d="M0.694113 11.2648C0.931107 10.0893 1.32486 8.95103 1.86483 7.88037L6.27736 11.3052C5.70028 13.0052 5.70028 14.848 6.27736 16.5479C4.80722 17.6832 3.33638 18.8241 1.86483 19.9707C0.513505 17.2808 0.101375 14.2161 0.694113 11.2648Z" fill="#F8BD00"/>
<path d="M13.893 11.4033H26.5623C26.9954 13.7808 26.8782 16.2259 26.2196 18.5511C25.6135 20.6892 24.436 22.6216 22.8139 24.1407C21.3899 23.0296 19.9595 21.927 18.5355 20.8159C19.2414 20.3397 19.844 19.7258 20.3071 19.0111C20.7701 18.2964 21.0841 17.4956 21.2302 16.6566H13.893C13.8909 14.9069 13.893 13.1551 13.893 11.4033Z" fill="#587DBD"/>
<path d="M1.8623 19.9706C3.33386 18.8354 4.8047 17.6944 6.27483 16.5479C6.8436 18.2171 7.92534 19.6639 9.36552 20.6815C10.2637 21.3166 11.2844 21.7574 12.3625 21.9757C13.4248 22.1733 14.5144 22.1733 15.5767 21.9757C16.6359 21.7967 17.646 21.3979 18.5418 20.805C19.9658 21.9161 21.3962 23.0187 22.8202 24.1298C21.2619 25.5469 19.3622 26.5349 17.3072 26.997C15.039 27.5302 12.6753 27.5047 10.4192 26.9225C8.63478 26.4461 6.96806 25.6062 5.52345 24.4555C3.99455 23.2414 2.74574 21.7116 1.8623 19.9706Z" fill="#319F43"/>
</g>
<defs>
<clipPath id="clip0_79_241">
<rect width="27.2457" height="27.2457" fill="white" transform="translate(0 0.302734)"/>
</clipPath>
</defs>
</svg>
