<svg width="21" height="22" viewBox="0 0 21 22" fill="none" xmlns="http://www.w3.org/2000/svg">
<path d="M16.1771 9.95142H4.25706C3.31659 9.95142 2.5542 10.7138 2.5542 11.6543V17.6143C2.5542 18.5547 3.31659 19.3171 4.25706 19.3171H16.1771C17.1175 19.3171 17.8799 18.5547 17.8799 17.6143V11.6543C17.8799 10.7138 17.1175 9.95142 16.1771 9.95142Z" stroke="black" stroke-width="1.70286" stroke-linecap="round" stroke-linejoin="round"/>
<path d="M5.95996 9.95143V6.54572C5.95996 5.41665 6.40848 4.33383 7.20685 3.53546C8.00522 2.73709 9.08804 2.28857 10.2171 2.28857C11.3462 2.28857 12.429 2.73709 13.2274 3.53546C14.0257 4.33383 14.4742 5.41665 14.4742 6.54572V9.95143" stroke="black" stroke-width="1.70286" stroke-linecap="round" stroke-linejoin="round"/>
</svg>
