<svg width="31" height="21" viewBox="0 0 31 21" fill="none" xmlns="http://www.w3.org/2000/svg">
<g clip-path="url(#clip0_79_248)">
<path d="M3.55632 13.7028C3.55632 14.8709 3.81326 15.7678 4.14899 16.3103C4.58925 17.021 5.24574 17.322 5.91516 17.322C6.77855 17.322 7.56842 17.1081 9.09046 15.0071C10.3099 13.3231 11.7468 10.9592 12.7136 9.47725L14.3509 6.96658C15.4882 5.22298 16.8046 3.28471 18.314 1.97082C19.5459 0.898436 20.8752 0.302734 22.2129 0.302734C24.4588 0.302734 26.5981 1.60169 28.2354 4.03791C30.0272 6.70596 30.897 10.0666 30.897 13.5347C30.897 15.5964 30.4899 17.1113 29.7971 18.3082C29.1276 19.4657 27.8229 20.6221 25.6282 20.6221V17.322C27.5074 17.322 27.9764 15.5986 27.9764 13.6262C27.9764 10.8156 27.3198 7.69636 25.8734 5.46771C24.8468 3.88674 23.5166 2.92083 22.0531 2.92083C20.4703 2.92083 19.1964 4.11224 17.7649 6.23692C17.0039 7.36559 16.2225 8.74114 15.3454 10.2932L14.3796 12.0007C12.4396 15.4337 11.9482 16.2155 10.9783 17.506C9.27808 19.7657 7.82645 20.6221 5.91516 20.6221C3.64803 20.6221 2.21424 19.6422 1.32643 18.1656C0.601569 16.9624 0.245605 15.3837 0.245605 13.5848L3.55632 13.7028Z" fill="#0081FB"/>
<path d="M2.85596 4.27081C4.37392 1.9358 6.5643 0.302734 9.07664 0.302734C10.5317 0.302734 11.9781 0.732571 13.4885 1.96341C15.1406 3.30908 16.9015 5.52507 19.0983 9.17731L19.8862 10.4879C21.7876 13.6497 22.8695 15.2762 23.5027 16.0433C24.3171 17.0284 24.8874 17.322 25.6282 17.322C27.5074 17.322 27.9764 15.5986 27.9764 13.6262L30.897 13.5347C30.897 15.5964 30.4899 17.1113 29.797 18.3082C29.1276 19.4657 27.8229 20.6221 25.6282 20.6221C24.2638 20.6221 23.0551 20.3263 21.7184 19.0677C20.6909 18.1018 19.4896 16.3858 18.5654 14.8432L15.8164 10.2602C14.4372 7.96022 13.1718 6.24541 12.4397 5.46867C11.6521 4.63361 10.6394 3.62504 9.02348 3.62504C7.71565 3.62504 6.60489 4.54112 5.67541 5.94212L2.85596 4.27081Z" fill="url(#paint0_linear_79_248)"/>
<path d="M9.02341 3.62504C7.71557 3.62504 6.60482 4.54112 5.67534 5.94212C4.36116 7.92197 3.55632 10.8708 3.55632 13.7028C3.55632 14.8709 3.81326 15.7678 4.14899 16.3103L1.32643 18.1656C0.601569 16.9624 0.245605 15.3837 0.245605 13.5848C0.245605 10.3134 1.14527 6.90385 2.85601 4.27081C4.37397 1.9358 6.56435 0.302734 9.07669 0.302734L9.02341 3.62504Z" fill="url(#paint1_linear_79_248)"/>
</g>
<defs>
<linearGradient id="paint0_linear_79_248" x1="392.009" y1="1136.84" x2="2499.99" y2="1243.52" gradientUnits="userSpaceOnUse">
<stop stop-color="#0064E1"/>
<stop offset="0.4" stop-color="#0064E1"/>
<stop offset="0.83" stop-color="#0073EE"/>
<stop offset="1" stop-color="#0082FB"/>
</linearGradient>
<linearGradient id="paint1_linear_79_248" x1="479.906" y1="1479.03" x2="479.906" y2="702.44" gradientUnits="userSpaceOnUse">
<stop stop-color="#0082FB"/>
<stop offset="1" stop-color="#0064E0"/>
</linearGradient>
<clipPath id="clip0_79_248">
<rect width="30.6514" height="20.4343" fill="white" transform="translate(0.245605 0.302734)"/>
</clipPath>
</defs>
</svg>
