 <svg width="80" height="80" viewBox="0 0 80 80" fill="none" xmlns="http://www.w3.org/2000/svg">
<path d="M68 8H64V4C64 1.6 62.4 0 60 0C57.6 0 56 1.6 56 4V8H24V4C24 1.6 22.4 0 20 0C17.6 0 16 1.6 16 4V8H12C5.2 8 0 13.2 0 20V24H80V20C80 13.2 74.8 8 68 8ZM0 68C0 74.8 5.2 80 12 80H68C74.8 80 80 74.8 80 68V32H0V68ZM60 40C62.4 40 64 41.6 64 44C64 46.4 62.4 48 60 48C57.6 48 56 46.4 56 44C56 41.6 57.6 40 60 40ZM60 56C62.4 56 64 57.6 64 60C64 62.4 62.4 64 60 64C57.6 64 56 62.4 56 60C56 57.6 57.6 56 60 56ZM40 40C42.4 40 44 41.6 44 44C44 46.4 42.4 48 40 48C37.6 48 36 46.4 36 44C36 41.6 37.6 40 40 40ZM40 56C42.4 56 44 57.6 44 60C44 62.4 42.4 64 40 64C37.6 64 36 62.4 36 60C36 57.6 37.6 56 40 56ZM20 40C22.4 40 24 41.6 24 44C24 46.4 22.4 48 20 48C17.6 48 16 46.4 16 44C16 41.6 17.6 40 20 40ZM20 56C22.4 56 24 57.6 24 60C24 62.4 22.4 64 20 64C17.6 64 16 62.4 16 60C16 57.6 17.6 56 20 56Z" fill="#2F27CE"/>
</svg>
