<svg width="477" height="413" viewBox="0 0 477 413" fill="none" xmlns="http://www.w3.org/2000/svg">
<path d="M209.374 197.529C246.604 192.216 272.567 158.32 267.364 121.819C262.161 85.3181 227.762 60.0355 190.532 65.3486C153.302 70.6617 127.339 104.559 132.542 141.059C137.745 177.56 172.144 202.843 209.374 197.529Z" fill="#DC952D"/>
<path d="M215.36 196.895C252.59 191.582 278.553 157.686 273.35 121.185C268.147 84.6841 233.749 59.4016 196.519 64.7147C159.288 70.0278 133.325 103.925 138.528 140.425C143.731 176.926 178.13 202.209 215.36 196.895Z" fill="#FCC84E"/>
<path d="M138.371 138.096C167.312 114.246 196.253 90.4314 225.229 66.5817C229.383 67.8147 234.313 69.6818 239.559 72.5353C242.586 74.1911 245.227 75.9173 247.516 77.6082L146.363 162.438C146.363 162.438 138.934 154.265 138.371 138.096Z" fill="#FEF04F"/>
<path d="M169.142 187.169C202.378 159.726 235.615 132.248 268.816 104.805C270.224 108.222 271.597 112.344 272.583 117.064C273.076 119.495 273.428 121.82 273.674 123.969C245.262 147.784 216.849 171.633 188.436 195.448C186.253 194.919 183.859 194.179 181.359 193.263C176.465 191.432 172.416 189.247 169.142 187.169Z" fill="#F59E1B"/>
<path d="M206.463 182.378C234.697 182.378 257.585 159.476 257.585 131.226C257.585 102.976 234.697 80.0742 206.463 80.0742C178.229 80.0742 155.341 102.976 155.341 131.226C155.341 159.476 178.229 182.378 206.463 182.378Z" fill="#D2753F"/>
<path d="M216.233 179.707C242.952 175.893 261.516 151.082 257.697 124.29C253.878 97.4966 229.122 78.8679 202.402 82.681C175.683 86.4941 157.118 111.305 160.938 138.098C164.757 164.891 189.513 183.52 216.233 179.707Z" fill="#FDAA40"/>
<path d="M206.182 109.807C206.182 109.807 210.688 111.111 213.153 112.626C215.617 114.14 220.3 112.59 219.244 108.046C218.187 103.501 213.54 101.81 210.618 101.247C207.695 100.683 206.322 100.683 206.322 100.683L205.513 100.507L204.703 94.9408C204.703 94.9408 203.154 93.6021 200.267 93.3203C197.38 93.0385 196.112 96.3499 196.112 96.3499L197.168 102.48C197.168 102.48 182.874 106.566 185.022 119.601C187.169 132.635 199.844 132.107 199.844 132.107C199.844 132.107 217.061 129.253 218.856 139.681C220.652 150.109 211.498 153.949 207.238 153.103C202.978 152.258 198.365 152.716 194.915 146.445C191.465 140.174 186.183 146.41 186.148 147.607C186.113 148.805 189.916 157.542 196.147 160.677C196.147 160.677 199.386 162.157 201.851 162.227C204.316 162.262 205.055 161.981 205.055 161.981L206.111 168.604C206.111 168.604 206.745 169.59 210.23 169.977C213.716 170.365 215.054 167.441 215.054 167.441L214.174 160.501C214.174 160.501 225.053 159.057 228.398 143.556C231.742 128.056 214.843 122.666 208.329 122.983C201.816 123.335 194.352 125.378 194.457 116.325C194.493 115.021 197.943 108.927 206.182 109.807Z" fill="#D2753F"/>
<path d="M209.561 109.49C209.561 109.49 214.068 110.794 216.532 112.308C218.997 113.823 223.679 112.273 222.623 107.729C221.567 103.184 216.919 101.493 213.997 100.93C211.075 100.366 209.702 100.366 209.702 100.366L208.892 100.19L208.082 94.6237C208.082 94.6237 206.533 93.2851 203.646 93.0032C200.759 92.7214 199.491 96.0329 199.491 96.0329L200.548 102.163C200.548 102.163 186.253 106.249 188.401 119.284C190.549 132.318 203.224 131.79 203.224 131.79C203.224 131.79 220.44 128.936 222.236 139.364C224.031 149.792 214.877 153.631 210.617 152.786C206.357 151.94 201.745 152.398 198.294 146.128C194.844 139.857 189.563 146.093 189.528 147.29C189.492 148.488 193.295 157.225 199.527 160.36C199.527 160.36 202.766 161.84 205.23 161.91C207.695 161.945 208.434 161.664 208.434 161.664L209.491 168.287C209.491 168.287 210.124 169.273 213.61 169.66C217.095 170.048 218.433 167.124 218.433 167.124L217.553 160.184C217.553 160.184 228.432 158.74 231.777 143.239C235.157 127.774 218.222 122.349 211.709 122.666C205.195 123.018 197.731 125.061 197.837 116.007C197.837 114.704 201.287 108.609 209.561 109.49Z" fill="#FECB51"/>
<path d="M252.62 366.2L255.12 378.143L255.824 384.308L267.936 383.533C267.936 383.533 266.703 367.891 265.471 364.227C264.239 360.564 252.62 366.2 252.62 366.2Z" fill="#FEABB5"/>
<path d="M343.175 350.453L353.174 352.214L353.033 365.002L336.168 363.065L339.302 352.214L339.76 349.713L343.175 350.453Z" fill="#FEABB5"/>
<path d="M254.592 69.8581C254.909 74.4026 255.261 78.947 255.578 83.4915C256.528 84.9711 257.479 86.4507 258.465 87.9303C265.189 87.578 271.914 87.261 278.604 86.9087L278.216 85.8518L271.316 66.6171L254.592 69.8581Z" fill="#FEABB5"/>
<path d="M256.704 84.4778C256.704 84.4778 259.626 84.9006 263.851 85.6404C268.076 86.3802 272.266 86.2393 273.71 85.9574C275.153 85.6756 278.111 85.2176 278.111 85.2176L278.639 86.9086C278.639 86.9086 263.182 87.6484 262.795 87.6484C262.408 87.6484 258.711 86.3097 258.711 86.3097L256.704 84.4778Z" fill="#FE8D90"/>
<path d="M255.613 83.4915C255.507 83.7381 255.402 84.0552 255.437 84.4779C255.543 85.6052 256.74 86.345 257.092 86.5564C257.233 86.6621 258.746 88.5997 261.774 92.4396C261.774 92.4396 264.697 96.1738 267.76 103.184C270.682 109.878 274.168 125.801 273.041 146.374C272.759 151.659 271.175 172.408 262.584 192.524C261.035 196.152 259.662 198.935 258.746 200.732C254.169 209.856 244.487 226.449 244.487 226.449C244.487 226.449 246.705 231.909 268.358 229.584C290.011 227.259 294.271 221.834 294.271 221.834L294.483 220.988L292.053 153.279L279.167 85.9927C276.632 86.6621 272.794 87.3667 268.112 87.0144C262.443 86.5916 258.148 84.7597 255.613 83.4915Z" fill="white"/>
<path d="M241.459 203.127C241.459 203.127 198.435 270.942 196.569 286.76C194.703 302.577 201.252 306.453 204.068 309.377C206.885 312.301 252.409 370.11 252.409 370.11C252.409 370.11 259.732 371.414 265.048 370.11C270.365 368.807 271.139 366.059 271.139 366.059C271.139 366.059 235.439 301.133 234.594 292.185C233.643 282.497 256.81 248.326 256.81 248.326C256.81 248.326 270.611 318.325 271.527 322.693C272.442 327.061 336.872 369.441 336.872 369.441C336.872 369.441 341.097 366.869 345.146 359.577C349.195 352.32 349.195 346.648 349.195 346.648L297.721 309.236C297.721 309.236 305.221 256.287 305.221 236.559C305.221 236.559 304.904 228.985 304.446 226.237C303.988 223.489 278.885 206.368 261.563 202.352C244.241 198.301 241.459 203.127 241.459 203.127Z" fill="#4F2926"/>
<path d="M264.837 20.9257C264.379 20.2211 250.754 31.3533 246.247 43.7537C241.741 56.1542 244.593 65.7363 251.212 68.5194C257.831 71.3024 265.576 69.3648 268.041 68.2375C270.541 67.1102 276.878 63.9396 277.16 63.1294C277.442 62.2839 279.906 64.0453 283.673 61.2623C287.441 58.4792 287.265 55.3791 284.765 51.962L283.286 49.9892C283.286 49.9892 287.159 40.8298 287.37 37.6592C287.581 34.5239 285.504 33.6079 283.216 32.8329C280.998 32.0579 271.069 30.9306 264.837 20.9257Z" fill="#FEABB5"/>
<path d="M263.182 20.2211C263.182 20.2211 262.619 21.7711 264.098 24.3076C265.577 26.844 270.083 30.8601 274.027 32.1988C277.97 33.5374 284.378 33.6079 284.624 35.8273C284.871 38.0467 283.814 42.8025 283.462 43.9651C283.075 45.1276 283.462 48.9675 283.462 48.9675C283.462 48.9675 288.215 40.5127 288.215 39.5263C288.215 38.5399 289.272 34.3477 285.821 32.3044C282.371 30.2612 276.033 29.5918 275.787 29.4509C275.505 29.3452 263.182 20.2211 263.182 20.2211Z" fill="#FE8D90"/>
<path d="M267.583 1.4796C267.583 1.4796 261.387 6.3059 260.823 14.338C260.295 22.3701 270.259 28.8874 273.85 30.2613C277.442 31.6704 283.568 32.9739 283.568 32.9739C283.568 32.9739 286.807 34.6648 286.279 38.5752C285.751 42.4856 282.617 49.7779 282.617 49.7779C282.617 49.7779 287.229 53.653 285.399 58.2679C283.568 62.8829 278.111 63.0238 276.913 62.601C276.913 62.601 273.533 65.067 272.407 65.6659C272.407 65.6659 274.59 69.1535 286.103 65.8068C297.616 62.4601 302.369 51.7154 303.566 48.3687C304.763 45.022 305.784 34.8057 299.975 29.0283C294.165 23.2508 290.187 24.3429 290.856 15.7471C291.525 7.15138 284.906 7.22184 284.518 7.22184C284.131 7.22184 275.857 8.80712 275.857 8.80712C275.857 8.80712 272.829 6.94001 271.844 3.91036C270.858 0.880713 269.062 0 269.062 0L267.583 1.4796Z" fill="#4F2926"/>
<path d="M285.364 212.181C285.364 212.181 284.131 229.091 290.434 238.074C296.736 247.093 303.989 246.705 303.989 246.705C303.989 246.705 306.207 227.717 303.109 222.538C300.01 217.36 284.73 211.794 284.73 211.794L285.364 212.181Z" stroke="white" stroke-width="3" stroke-miterlimit="10"/>
<path d="M279.132 85.9927C279.132 85.9927 291.912 82.0471 302.545 92.9679C313.143 103.854 325.078 120.587 330.218 146.868C335.359 173.148 330.606 195.483 324.691 204.713C318.741 213.943 311.734 221.2 306.347 224.969C300.961 228.739 300.961 228.738 300.961 228.738C300.961 228.738 292.476 221.763 290.574 207.778C288.673 193.792 292.053 186.817 292.053 186.817L278.639 86.9086C278.639 86.9086 278.498 85.9222 279.132 85.9927Z" fill="#5670C4"/>
<path d="M281.455 176.777C282.899 176.319 295.679 173.712 304.199 163.812C312.72 153.913 315.255 128.971 313.001 116.501C310.748 104.03 306.347 95.3635 300.326 91.0656C294.306 86.7677 281.455 176.777 281.455 176.777Z" fill="#C92615"/>
<path d="M231.706 190.163C231.495 190.304 226.319 193.721 224.031 193.369C221.742 193.017 214.666 188.966 211.426 190.445C208.187 191.925 207.73 195.624 210.757 197.561C213.785 199.534 215.968 199.851 215.968 199.851C215.968 199.851 208.399 203.973 207.131 203.621C205.864 203.268 204.244 201.93 202.871 202.564C201.533 203.198 198.752 213.872 206.849 218.205C214.947 222.538 222.094 223.313 228.185 221.27C234.241 219.227 240.191 217.501 243.36 214.929C246.529 212.357 246.81 210.948 246.81 210.948L246.599 209.469L231.706 190.163Z" fill="#FEABB5"/>
<path d="M239.382 196.892C239.241 197.279 241.248 210.349 234.805 214.541C228.397 218.734 220.863 220.706 217.905 220.847C214.948 220.988 209.033 219.368 209.033 219.368C209.033 219.368 218.116 224.124 228.467 221.059C228.467 221.059 237.058 218.945 242.234 215.704C247.409 212.463 247.409 209.398 247.409 209.398L239.382 196.892Z" fill="#FE8D90"/>
<path d="M284.377 85.5699C284.377 85.5699 274.871 89.5507 273.639 106.954C272.442 124.356 273.252 142.605 270.822 149.016C268.393 155.428 230.474 186.464 230.474 186.464C230.474 186.464 230.615 195.694 238.854 203.656C247.092 211.617 246.811 210.208 246.811 210.208C246.811 210.208 289.87 187.028 293.285 183.857C303.073 174.909 303.671 162.615 306.03 152.398C308.706 140.879 311.417 121.75 306.805 97.5476C304.446 94.6589 302.193 92.5451 300.467 91.1008C297.616 88.7405 295.081 87.1904 292.581 86.0631C289.166 84.5483 287.088 84.3369 285.328 85.0415C284.906 85.2529 284.589 85.429 284.377 85.5699Z" fill="#F0512A"/>
<path d="M260.471 28.1827C260.471 28.1827 265.013 30.6487 266.034 32.3397C267.055 34.0307 267.971 35.3341 267.795 36.5671C267.619 37.8353 265.717 42.6264 264.732 44.106C263.746 45.5856 261.457 48.1573 260.894 48.6153C260.366 49.0732 260.366 49.0732 260.366 49.0732" stroke="#4F2926" stroke-miterlimit="10"/>
<path d="M273.886 40.1604C273.886 40.1604 277.09 39.7376 278.709 41.182C280.329 42.6263 281.209 45.9026 281.209 45.9026" stroke="#4F2926" stroke-miterlimit="10"/>
<path d="M261.001 39.0077C261.996 36.9826 261.488 34.6933 259.866 33.8944C258.243 33.0956 256.12 34.0897 255.124 36.1148C254.129 38.1399 254.637 40.4292 256.259 41.2281C257.882 42.0269 260.005 41.0328 261.001 39.0077Z" fill="#4F2926"/>
<path d="M277.819 49.5995C278.815 47.5744 278.307 45.2851 276.684 44.4862C275.062 43.6874 272.939 44.6815 271.943 46.7066C270.947 48.7317 271.456 51.021 273.078 51.8199C274.701 52.6187 276.824 51.6246 277.819 49.5995Z" fill="#4F2926"/>
<path d="M250.824 53.0188C253.274 53.0188 255.261 51.0157 255.261 48.5448C255.261 46.0738 253.274 44.0707 250.824 44.0707C248.374 44.0707 246.388 46.0738 246.388 48.5448C246.388 51.0157 248.374 53.0188 250.824 53.0188Z" fill="#FE8D90"/>
<path d="M270.048 62.8828C272.498 62.8828 274.484 60.8797 274.484 58.4088C274.484 55.9378 272.498 53.9348 270.048 53.9348C267.598 53.9348 265.612 55.9378 265.612 58.4088C265.612 60.8797 267.598 62.8828 270.048 62.8828Z" fill="#FE8D90"/>
<path d="M254.521 52.9836C254.521 52.9836 256 56.6122 257.619 57.8804C259.239 59.1486 262.055 59.3248 262.055 59.3248" stroke="#4F2926" stroke-miterlimit="10"/>
<path d="M351.449 350.7C350.533 350.77 351.132 363.311 351.132 363.311L344.9 363.488C344.9 363.488 344.125 365.425 344.759 367.68C345.393 369.934 349.899 376.557 349.899 376.557C349.899 376.557 349.759 395.44 350.674 397.377C351.589 399.315 355.814 394.453 358.314 388.993C360.814 383.497 365.567 364.368 366.518 360.176C367.468 355.984 367.468 354.539 367.468 354.539C367.468 354.539 367.926 349.15 351.449 350.7Z" fill="#F0512A"/>
<path d="M254.908 375.747C254.908 375.747 257.584 382.405 260.049 382.405C262.513 382.405 267.407 377.191 267.407 377.191C267.407 377.191 269.625 376.452 269.977 377.297C270.33 378.143 270.682 396.567 270.682 396.567C270.682 396.567 251.74 395.581 243.079 395.475C234.418 395.369 229.277 393.432 228.573 391.952C227.869 390.508 228.925 388.817 230.087 388.817C231.249 388.817 241.072 387.302 243.114 386.703C245.156 386.104 253.923 375.254 253.923 375.254L254.908 375.747Z" fill="#F0512A"/>
<path d="M254.592 69.6819C254.592 69.6819 259.908 69.4001 262.619 68.5194C265.33 67.6387 267.76 66.3352 267.76 66.3352C267.76 66.3352 267.231 70.0342 261.985 71.8309C256.739 73.6275 254.944 73.5218 254.944 73.5218L254.592 69.8581V69.6819Z" fill="#FE8D90"/>
<path d="M280.435 52.8779C280.435 52.8779 283.005 54.6393 282.723 56.6121C282.441 58.5849 281.35 59.3951 280.364 58.7963C279.378 58.1974 278.533 56.6825 278.991 56.1541C279.449 55.6257 281.104 54.7802 281.28 55.9428C281.42 57.0701 280.399 56.9291 280.399 56.9291" stroke="#FE8D90" stroke-miterlimit="10"/>
<path d="M250.367 383.004C251.086 383.004 251.669 382.531 251.669 381.947C251.669 381.364 251.086 380.89 250.367 380.89C249.647 380.89 249.064 381.364 249.064 381.947C249.064 382.531 249.647 383.004 250.367 383.004Z" fill="#F9ECDC"/>
<path d="M248.29 385.435C248.912 385.435 249.416 385.025 249.416 384.519C249.416 384.013 248.912 383.603 248.29 383.603C247.668 383.603 247.163 384.013 247.163 384.519C247.163 385.025 247.668 385.435 248.29 385.435Z" fill="#F9ECDC"/>
<path d="M245.965 387.513C246.529 387.513 246.986 387.103 246.986 386.597C246.986 386.091 246.529 385.681 245.965 385.681C245.401 385.681 244.944 386.091 244.944 386.597C244.944 387.103 245.401 387.513 245.965 387.513Z" fill="#F9ECDC"/>
<path d="M348.533 366.975C348.78 366.299 348.536 365.589 347.988 365.388C347.44 365.188 346.796 365.574 346.549 366.25C346.302 366.926 346.546 367.637 347.094 367.837C347.642 368.037 348.286 367.652 348.533 366.975Z" fill="#F9ECDC"/>
<path d="M350.078 369.762C350.292 369.177 350.08 368.563 349.605 368.389C349.13 368.215 348.572 368.549 348.358 369.134C348.145 369.718 348.357 370.333 348.832 370.507C349.306 370.68 349.864 370.347 350.078 369.762Z" fill="#F9ECDC"/>
<path d="M351.242 372.648C351.435 372.118 351.207 371.548 350.732 371.374C350.257 371.201 349.715 371.49 349.522 372.02C349.328 372.549 349.556 373.12 350.031 373.293C350.506 373.467 351.048 373.178 351.242 372.648Z" fill="#F9ECDC"/>
<path d="M8.62949 336.362C8.62949 336.362 24.473 346.261 44.4711 337.982C44.4711 337.982 52.4281 334.318 58.8711 324.032C65.3142 313.745 65.1381 313.78 68.835 315.612C72.4966 317.444 72.4966 351.933 72.4966 351.933L77.5665 352.25C77.5665 352.25 77.5665 322.059 73.1303 312.864C73.1303 312.864 71.8981 305.22 68.835 304.585C65.7719 303.951 59.6457 303.529 48.6256 308.425C37.6056 313.322 36.3733 306.276 21.8324 311.948C7.29159 317.62 1.93999 326.181 0.390845 332.169C-1.1583 338.158 2.3977 344.746 2.3977 344.746C2.3977 344.746 1.90478 340.413 8.62949 336.362Z" fill="#529A74"/>
<path d="M3.55957 336.432C4.01727 335.058 7.67889 331.676 30.6696 328.611C53.6252 325.546 60.5259 311.455 63.9059 310.997" stroke="#328A5A" stroke-width="3" stroke-miterlimit="10"/>
<path d="M28.6979 265.341C29.9301 265.13 32.2186 274.078 45.5272 281.123C58.8358 288.169 65.5957 288.944 69.715 288.028C73.8344 287.112 76.7566 282.955 78.1297 283.589C79.5028 284.223 79.5028 350.7 79.5028 350.7H84.3967C84.3967 350.7 83.6222 282.215 83.0236 280.841C82.4251 279.467 80.4182 274.571 68.3067 266.609C56.1952 258.647 47.4637 250.052 32.1834 253.751C32.1834 253.751 25.4587 256.217 22.0788 261.113C18.6988 266.01 20.7057 269.075 20.7057 269.075C20.7057 269.075 20.1071 266.715 28.6979 265.341Z" fill="#529A74"/>
<path d="M25.7759 261.994C25.7759 261.994 43.6967 259.387 55.4913 268.124C67.286 276.861 73.0953 280.383 73.0953 280.383" stroke="#328A5A" stroke-width="3" stroke-miterlimit="10"/>
<path d="M87.4245 351.298C86.0514 348.762 86.8612 268.335 87.4245 265.905C87.9878 263.474 88.4456 259.916 99.36 256.146C110.274 252.377 135.659 229.725 146.222 230.993C156.784 232.261 168.156 242.583 167.945 246.036C167.699 249.488 161.502 248.114 156.009 248.678C150.482 249.242 147.384 256.71 140.166 266.609C132.913 276.508 120.309 280.172 107.317 275.804C94.3253 271.435 92.6001 268.899 92.6001 268.899L90.4172 351.756L87.4245 351.298Z" fill="#328A5A"/>
<path d="M94.854 351.933C94.0794 350.101 100.663 297.082 97.1425 278.235C93.6217 259.387 94.8539 254.35 86.897 251.285C78.94 248.22 61.6177 235.96 57.9561 223.701C54.2945 211.441 53.8368 204.537 53.3791 203.797C52.9214 203.057 52.1468 200.732 48.4852 204.396C44.8235 208.059 43.2744 202.881 48.626 195.659C53.9776 188.437 59.3292 186.464 68.6945 192.735C78.0598 199.006 93.5161 216.479 97.0368 225.533C100.558 234.586 96.72 248.361 97.0368 252.342C97.3537 256.322 102.846 279.01 103.938 295.25C104.994 311.49 100.417 351.792 100.417 351.792L94.854 351.933Z" fill="#529A74"/>
<path d="M94.2902 267.877C94.2902 267.877 116.682 272.14 124.041 268.582C131.399 265.024 142.631 239.624 149.531 238.25C156.432 236.876 167.91 246.635 167.91 246.635C167.91 246.635 168.156 248.924 160.657 248.713C153.158 248.502 151.714 249.629 146.644 257.097C141.574 264.566 137.103 273.655 126.083 276.156C115.063 278.693 107.81 276.403 102.071 274.078C96.3322 271.788 92.5298 268.899 92.5298 268.899L94.2902 267.877Z" fill="#529A74"/>
<path d="M57.6392 196.258C57.6392 196.258 79.0808 219.086 83.8338 230.43C88.5869 241.773 90.5585 248.361 90.5585 248.361" stroke="#328A5A" stroke-width="3" stroke-miterlimit="10"/>
<path d="M45.3867 203.902C45.5276 202.071 52.2875 187.345 63.3075 196.716C74.3276 206.087 74.1868 214.964 82.7423 222.609C91.333 230.253 94.3961 234.868 93.9384 240.54C93.4807 246.212 94.2553 253.258 96.2269 256.463C98.2338 259.669 98.6915 259.528 98.2338 259.669C97.7761 259.81 96.6142 251.531 96.6142 251.531C96.6142 251.531 101.684 231.768 96.1565 223.278C90.6289 214.788 74.7853 192.383 62.2865 189.388C49.7525 186.394 45.3867 203.902 45.3867 203.902Z" fill="#328A5A"/>
<path d="M174.493 315.084C174.493 315.084 158.65 324.384 138.652 316.598C138.652 316.598 130.695 313.146 124.252 303.458C120.027 297.117 118.654 294.933 117.14 294.651C117.14 294.651 115.802 294.51 114.288 295.497C108.584 299.16 110.028 340.836 110.556 352.813C109.148 352.989 107.739 353.166 106.331 353.342C105.063 342.703 104.5 329.562 106.155 314.696C107.035 306.664 108.443 299.372 110.028 292.89C110.028 292.89 111.26 285.668 114.323 285.104C117.386 284.54 123.512 284.083 134.532 288.697C145.553 293.312 146.785 286.689 161.326 292.009C175.866 297.364 181.218 305.431 182.767 311.068C184.281 316.704 180.76 322.904 180.76 322.904C180.76 322.904 181.218 318.888 174.493 315.084Z" fill="#328A5A"/>
<path d="M178.718 313.463C177.838 311.702 173.613 307.932 153.861 308.813C134.11 309.694 123.371 292.079 120.449 292.185" stroke="#529A74" stroke-width="3" stroke-miterlimit="10"/>
<path d="M116.295 412.455H61.9697C59.7868 412.455 58.0264 410.694 58.0264 408.51V354.61C58.0264 352.426 59.7868 350.664 61.9697 350.664H116.295C118.478 350.664 120.239 352.426 120.239 354.61V408.51C120.274 410.658 118.478 412.455 116.295 412.455Z" fill="#FEABB5"/>
<path d="M70.3135 411.751C70.5599 411.187 79.3971 394.841 90.6284 384.625C101.895 374.408 120.273 371.766 120.273 371.766L120.52 407.735C120.52 407.735 120.168 412.314 113.971 412.561L70.3135 411.751Z" fill="#FE8D90"/>
<path d="M139.673 47.8402H46.5134C42.7813 47.8402 39.7183 44.8105 39.7183 41.0411V25.5406C39.7183 21.8063 42.7461 18.7415 46.5134 18.7415H139.673C143.405 18.7415 146.469 21.7711 146.469 25.5406V41.0411C146.469 44.8105 143.405 47.8402 139.673 47.8402Z" fill="#F1CFAA"/>
<path d="M136.328 31.2123H72.3205C71.8628 31.2123 71.5107 30.86 71.5107 30.402V27.0201C71.5107 26.5621 71.8628 26.2098 72.3205 26.2098H136.328C136.786 26.2098 137.138 26.5621 137.138 27.0201V30.402C137.138 30.86 136.751 31.2123 136.328 31.2123Z" fill="#F9ECDC"/>
<path d="M136.822 41.1467H72.8488C72.3911 41.1467 72.0391 40.7945 72.0391 40.3365V36.9545C72.0391 36.4966 72.3911 36.1443 72.8488 36.1443H136.857C137.314 36.1443 137.667 36.4966 137.667 36.9545V40.3365C137.631 40.7945 137.279 41.1467 136.822 41.1467Z" fill="#F9ECDC"/>
<path d="M57.5685 43.7888C63.3242 43.7888 67.99 39.4199 67.99 34.0305C67.99 28.6412 63.3242 24.2722 57.5685 24.2722C51.8129 24.2722 47.147 28.6412 47.147 34.0305C47.147 39.4199 51.8129 43.7888 57.5685 43.7888Z" fill="#FAEFE5"/>
<path d="M57.5684 24.2722V34.6999L47.2173 33.2555C47.2525 33.2203 47.6398 24.7302 57.5684 24.2722Z" fill="#E6B78B"/>
<path d="M17.8896 110.653C17.8896 110.653 25.5298 107.376 28.8393 107.658C32.1488 107.94 33.9797 111.075 36.9723 111.463C39.965 111.886 45.5983 107.376 50.3865 108.046C55.21 108.715 55.21 111.322 58.8364 111.463C62.498 111.604 65.1386 106.954 71.0888 107.764C77.0741 108.574 73.7294 110.899 79.2218 110.899C84.7142 110.899 85.524 108.046 89.8194 108.433C94.1147 108.821 94.7837 109.666 94.7837 109.666" stroke="#E6B78B" stroke-width="4" stroke-miterlimit="10"/>
<path d="M20.0371 115.268C24.8606 113.506 27.9941 114.035 30.8107 114.739C33.6274 115.408 33.6274 119.636 38.4508 118.015C43.2743 116.395 46.9007 113.647 49.2245 114.07C51.5482 114.493 55.3506 117.487 58.5193 117.628C61.6528 117.769 66.4763 114.774 69.2929 114.774C72.1096 114.774 75.912 117.487 79.7497 117.099C83.5521 116.677 86.8617 113.964 89.1854 113.964C91.5091 113.964 94.3258 115.338 94.3258 115.338" stroke="#E6B78B" stroke-width="4" stroke-miterlimit="10"/>
<path d="M367.574 283.942H344.372C342.048 283.942 340.147 282.039 340.147 279.714V251.144C340.147 248.819 342.048 246.916 344.372 246.916H367.574C369.898 246.916 371.799 248.819 371.799 251.144V279.714C371.799 282.039 369.898 283.942 367.574 283.942Z" fill="#F1CFAA"/>
<path d="M356.166 274.817C348.984 269.463 345.111 263.474 346.625 259.916C347.083 258.859 348.421 257.027 350.568 256.675C353.35 256.217 355.462 258.507 355.673 258.753C356.061 258.295 357.68 256.534 360.286 256.322C360.743 256.287 363.384 256.076 364.933 257.837C364.933 257.837 365.672 258.683 365.919 259.986C366.482 262.804 362.609 268.547 356.166 274.817Z" fill="#F0512A"/>
<path d="M397.606 189.529C397.606 189.529 405.246 186.253 408.556 186.535C411.865 186.817 413.696 189.952 416.689 190.339C419.681 190.762 425.315 186.253 430.103 186.922C434.926 187.592 434.926 190.199 438.553 190.339C442.214 190.48 444.855 185.83 450.805 186.64C456.755 187.451 453.446 189.776 458.938 189.776C464.431 189.776 465.24 186.922 469.536 187.31C473.831 187.733 474.5 188.543 474.5 188.543" stroke="#E6B78B" stroke-width="4" stroke-miterlimit="10"/>
<path d="M399.753 194.179C404.577 192.418 407.71 192.946 410.527 193.651C413.344 194.32 413.344 198.548 418.167 196.927C422.991 195.307 426.617 192.559 428.941 192.982C431.264 193.404 435.067 196.399 438.236 196.54C441.404 196.681 446.193 193.686 449.009 193.686C451.826 193.686 455.628 196.399 459.466 196.011C463.304 195.624 466.578 192.876 468.902 192.876C471.225 192.876 474.042 194.25 474.042 194.25" stroke="#E6B78B" stroke-width="4" stroke-miterlimit="10"/>
<path d="M393.24 199.393L387.079 196.328L381.058 199.675L382.044 192.876L377.009 188.191L383.804 187.028L386.691 180.757L389.895 186.852L396.726 187.697L391.902 192.629L393.24 199.393Z" fill="#E6B78B"/>
<path d="M114.816 198.125C122.672 198.125 129.04 191.753 129.04 183.893C129.04 176.032 122.672 169.66 114.816 169.66C106.961 169.66 100.592 176.032 100.592 183.893C100.592 191.753 106.961 198.125 114.816 198.125Z" fill="#F1CFAA"/>
<path d="M122.315 188.895L116.717 188.085L112.844 192.207L111.894 186.641L106.753 184.245L111.788 181.603L112.457 176.002L116.506 179.947L122.069 178.855L119.569 183.928L122.315 188.895Z" fill="#FDAA40"/>
<path d="M428.448 136.228H363.384C359.229 136.228 355.885 132.882 355.885 128.725V61.3327C355.885 57.1757 359.229 53.829 363.384 53.829H428.448C432.603 53.829 435.947 57.1757 435.947 61.3327V128.69C435.947 132.847 432.603 136.228 428.448 136.228Z" fill="#F1CFAA"/>
<path d="M392.642 70.4922C392.994 70.5274 392.571 62.143 392.571 62.143L400.634 62.2487L400.599 70.9854C400.599 70.9854 405.985 71.7956 407.887 73.4161C409.788 75.0719 410.668 76.0935 410.668 76.0935L403.732 83.2801C403.732 83.2801 398.064 78.3129 392.36 82.2585C392.36 82.2585 389.543 88.1416 394.754 89.7621C394.754 89.7621 400.387 89.6212 403.908 90.8895C407.429 92.1577 414.963 97.5829 412.534 107.623C410.105 117.663 401.584 119.777 401.584 119.777L400.775 119.953L401.197 127.175C401.197 127.175 393.592 127.598 393.24 127.421C392.888 127.245 393.099 119.354 393.099 119.354C393.099 119.354 387.255 118.65 382.502 114.704L380.882 112.59L388.346 105.298C388.346 105.298 392.149 109.983 398.521 109.596C404.894 109.173 403.204 101.106 400.071 100.683C396.937 100.26 386.797 100.894 382.079 90.8895C377.291 80.9198 386.621 70.1751 392.642 70.4922Z" fill="#DC952D"/>
</svg>
