<svg width="81" height="81" viewBox="0 0 81 81" fill="none" xmlns="http://www.w3.org/2000/svg">
<path fill-rule="evenodd" clip-rule="evenodd" d="M30.375 64.8V76.95H26.325C25.2113 76.95 24.3 77.8613 24.3 78.975C24.3 80.0888 25.2113 81 26.325 81H54.675C55.7888 81 56.7 80.0888 56.7 78.975C56.7 77.8613 55.7888 76.95 54.675 76.95H50.625V64.8H74.925C76.545 64.8 78.084 64.152 79.218 63.018C80.352 61.884 81 60.3248 81 58.725V52.65H0V58.725C0 60.345 0.648 61.884 1.782 63.018C2.916 64.152 4.47525 64.8 6.075 64.8H30.375ZM40.5 68.85C41.6138 68.85 42.525 69.7613 42.525 70.875C42.525 71.9888 41.6138 72.9 40.5 72.9C39.3863 72.9 38.475 71.9888 38.475 70.875C38.475 69.7613 39.3863 68.85 40.5 68.85ZM0 48.6H81V6.075C81 4.455 80.352 2.916 79.218 1.782C78.084 0.648 76.5248 0 74.925 0H6.075C4.455 0 2.916 0.648 1.782 1.782C0.648 2.916 0 4.47525 0 6.075V48.6ZM44.55 8.1C44.55 6.98625 43.6388 6.075 42.525 6.075H10.125C9.01125 6.075 8.1 6.98625 8.1 8.1V40.5C8.1 41.6138 9.01125 42.525 10.125 42.525H42.525C43.6388 42.525 44.55 41.6138 44.55 40.5V8.1ZM50.625 38.475H60.75C61.8638 38.475 62.775 37.5638 62.775 36.45C62.775 35.3363 61.8638 34.425 60.75 34.425H50.625C49.5113 34.425 48.6 35.3363 48.6 36.45C48.6 37.5638 49.5113 38.475 50.625 38.475ZM40.5 10.125V38.475H12.15V10.125H40.5ZM24.3 32.4C25.4138 32.4 26.325 33.3113 26.325 34.425C26.325 35.5388 25.4138 36.45 24.3 36.45C23.1863 36.45 22.275 35.5388 22.275 34.425C22.275 33.3113 23.1863 32.4 24.3 32.4ZM50.625 30.375H70.875C71.9888 30.375 72.9 29.4638 72.9 28.35C72.9 27.2363 71.9888 26.325 70.875 26.325H50.625C49.5113 26.325 48.6 27.2363 48.6 28.35C48.6 29.4638 49.5113 30.375 50.625 30.375ZM28.35 19.2375C28.35 20.9183 26.9933 22.275 25.3125 22.275H24.3203C22.275 22.275 22.275 24.3 22.275 24.3V28.35C22.275 29.4638 23.1863 30.375 24.3 30.375C25.4138 30.375 26.325 29.4638 26.325 28.35V26.244C29.7675 25.758 32.4 22.8015 32.4 19.2375C32.4 15.3293 29.2208 12.15 25.3125 12.15H22.275C21.1613 12.15 20.25 13.0613 20.25 14.175C20.25 15.2888 21.1613 16.2 22.275 16.2H25.3125C26.9933 16.2 28.35 17.5568 28.35 19.2375ZM66.825 22.275H71.8875C73.0013 22.275 73.9125 21.3638 73.9125 20.25C73.9125 19.1363 73.0013 18.225 71.8875 18.225H66.825C65.7113 18.225 64.8 19.1363 64.8 20.25C64.8 21.3638 65.7113 22.275 66.825 22.275ZM50.625 22.275H60.75C61.8638 22.275 62.775 21.3638 62.775 20.25C62.775 19.1363 61.8638 18.225 60.75 18.225H50.625C49.5113 18.225 48.6 19.1363 48.6 20.25C48.6 21.3638 49.5113 22.275 50.625 22.275ZM50.625 14.175H70.875C71.9888 14.175 72.9 13.2638 72.9 12.15C72.9 11.0363 71.9888 10.125 70.875 10.125H50.625C49.5113 10.125 48.6 11.0363 48.6 12.15C48.6 13.2638 49.5113 14.175 50.625 14.175Z" fill="#2F27CE"/>
</svg>
