<svg xmlns="http://www.w3.org/2000/svg" viewBox="0 0 64 64" id="stars"><polygon fill="#8f7fd3" points="19.64 24.33 19.33 24.26 20.2 20.36 29.03 30.9 42.71 29.6 35.42 41.25 40.88 53.86 38.12 53.17 38.2 52.83 32.95 40.83 38.58 32.11 27.42 33.14 19.64 24.33"></polygon><polygon fill="#ae9aed" points="38.58 32.11 32.95 40.83 38.2 52.83 38.12 53.17 27.55 50.53 17.24 59.62 16.29 45.91 4.46 38.92 17.21 33.78 19.33 24.26 19.64 24.33 27.42 33.14 38.58 32.11"></polygon><ellipse cx="55.76" cy="37.15" fill="#fff" rx="4.62" ry="5.15"></ellipse><polygon fill="#f9db03" points="52.67 11.79 47.7 16 48.35 22.49 42.81 19.06 36.84 21.69 38.39 15.36 34.04 10.5 40.54 10.01 43.82 4.38 46.3 10.41 52.67 11.79"></polygon><path fill="#fff" d="M11.78,14.69a4.607,4.607,0,0,0-4.34,4.85,4.616,4.616,0,0,0-4.36-4.85A4.618,4.618,0,0,0,7.43,9.83,4.624,4.624,0,0,0,11.78,14.69Z"></path><path fill="#35265d" d="M42.619 28.6l-13.161 1.25L20.968 19.72a1 1 0 0 0-1.742.425l-2.879 12.9L4.085 37.991a1 1 0 0 0-.135 1.788L15.332 46.5l.912 13.189a1 1 0 0 0 .618.856 1 1 0 0 0 1.041-.175l9.914-8.747 12.826 3.208a1 1 0 0 0 1.16-1.368L36.548 41.336l7.014-11.2a1 1 0 0 0-.943-1.527zM34.573 40.721a1 1 0 0 0-.07.928L39.162 52.4 27.792 49.56a1 1 0 0 0-.9.22L18.1 57.534l-.809-11.692a1 1 0 0 0-.489-.792L6.712 39.088l10.87-4.382a1 1 0 0 0 .6-.71l2.552-11.438 7.527 8.983a.992.992 0 0 0 .861.354l11.667-1.108zM53.314 12.549a1 1 0 0 0-.434-1.74L47.023 9.54 44.749 4a1 1 0 0 0-1.789-.124L39.943 9.05l-5.974.45a1 1 0 0 0-.671 1.663l3.992 4.469-1.418 5.822a1 1 0 0 0 1.375 1.151l5.482-2.415 5.1 3.148a1 1 0 0 0 1.521-.952l-.6-5.961zM47.052 15.24a1 1 0 0 0-.349.863l.452 4.469-3.822-2.36a1 1 0 0 0-.929-.064L38.3 19.958 39.357 15.6a1 1 0 0 0-.225-.9l-2.992-3.35L40.618 11a1 1 0 0 0 .789-.493L43.668 6.63l1.7 4.155a1 1 0 0 0 .713.6l4.39.951zM60.379 36.15A3.917 3.917 0 0 1 56.756 32a1 1 0 0 0-2 0 3.915 3.915 0 0 1-3.615 4.15 1 1 0 0 0 0 2A3.92 3.92 0 0 1 54.765 42.3a1 1 0 0 0 2 0 3.915 3.915 0 0 1 3.614-4.151 1 1 0 0 0 0-2zM55.764 38.8a5.946 5.946 0 0 0-1.555-1.653 5.967 5.967 0 0 0 1.548-1.65 5.928 5.928 0 0 0 1.554 1.653A5.935 5.935 0 0 0 55.764 38.8zM6.437 19.538a1 1 0 0 0 2 0 3.63 3.63 0 0 1 3.346-3.852 1 1 0 1 0 0-2A3.633 3.633 0 0 1 8.428 9.834a1 1 0 0 0-2 0A3.631 3.631 0 0 1 3.08 13.686a1 1 0 1 0 0 2A3.634 3.634 0 0 1 6.437 19.538zm.992-6.3A5.661 5.661 0 0 0 8.8 14.688a5.651 5.651 0 0 0-1.359 1.447 5.664 5.664 0 0 0-1.367-1.451A5.655 5.655 0 0 0 7.429 13.237z"></path></svg>