<svg width="67" height="76" viewBox="0 0 67 76" fill="none" xmlns="http://www.w3.org/2000/svg">
<path d="M50.7178 38.7291C55.1494 39.6698 59.0492 42.2656 61.6134 45.9813C64.1777 49.697 65.2109 54.2496 64.5 58.7005C63.7892 63.1514 61.3886 67.1615 57.7929 69.9042C54.1972 72.6469 49.6806 73.9131 45.174 73.4419C40.6674 72.9707 36.5143 70.798 33.5708 67.3716C30.6272 63.9452 29.1176 59.5262 29.353 55.0256C29.5884 50.525 31.551 46.2857 34.8361 43.1816C38.1213 40.0774 42.4786 38.345 47.0101 38.3414C48.2562 38.3404 49.499 38.4703 50.7178 38.7291Z" fill="#00ACEA"/>
<path d="M50.7181 17.9285V38.7291C47.3368 38.0093 43.8175 38.2912 40.5955 39.5397C37.3735 40.7882 34.5901 42.9486 32.5897 45.7537C30.5892 48.5589 29.4594 51.8857 29.34 55.3227C29.2205 58.7596 30.1167 62.1561 31.9176 65.0919L31.9005 65.1027H6.86025C5.4543 65.1027 4.10592 64.5473 3.11176 63.5585C2.1176 62.5698 1.55908 61.2288 1.55908 59.8305V7.76078C1.55908 6.36249 2.1176 5.02147 3.11176 4.03273C4.10592 3.04399 5.4543 2.48853 6.86025 2.48853H34.2159L34.3312 2.59552V12.6562C34.3316 14.0544 34.8903 15.3952 35.8844 16.3838C36.8784 17.3725 38.2266 17.9281 39.6324 17.9285H50.7181Z" fill="#00EFD1"/>
<path d="M50.7179 17.7346V17.9284H39.6322C38.2264 17.928 36.8783 17.3724 35.8842 16.3837C34.8901 15.3951 34.3315 14.0543 34.3311 12.6562V2.59546L50.7179 17.7346Z" fill="#00ACEA"/>
<path d="M52.2773 37.5223V17.7346C52.2774 17.5214 52.2331 17.3104 52.1474 17.1149C52.0618 16.9194 51.9364 16.7436 51.7793 16.5985L35.3945 1.46137L35.2791 1.35437C34.9905 1.08673 34.6106 0.937885 34.2159 0.937866H6.86034C5.04149 0.939877 3.29771 1.65936 2.01158 2.93847C0.725455 4.21758 0.00202217 5.95185 0 7.76078V59.8305C0.00202217 61.6394 0.725455 63.3737 2.01158 64.6528C3.29771 65.9319 5.04149 66.6514 6.86034 66.6534H31.0786C32.8126 69.2011 35.1387 71.2953 37.8597 72.7587C40.5807 74.2221 43.6164 75.0114 46.7094 75.0597C49.8024 75.108 52.8615 74.4139 55.6273 73.0363C58.3932 71.6586 60.7843 69.638 62.5979 67.1458C64.4116 64.6535 65.5942 61.7631 66.0457 58.7195C66.4971 55.676 66.2041 52.569 65.1913 49.6621C64.1786 46.7552 62.476 44.134 60.2279 42.0207C57.9799 39.9074 55.2526 38.3643 52.2773 37.5223ZM35.8905 6.15243L46.9587 16.3778H39.6325C38.6404 16.3767 37.6892 15.9843 36.9877 15.2866C36.2862 14.5889 35.8916 13.6429 35.8905 12.6562V6.15243ZM3.11834 59.8305V7.76078C3.11945 6.77409 3.51405 5.82814 4.21557 5.13044C4.91709 4.43275 5.86824 4.0403 6.86034 4.03919H32.7722V12.6562C32.7742 14.4652 33.4976 16.1994 34.7837 17.4785C36.0699 18.7576 37.8136 19.4771 39.6325 19.4791H49.159V36.9103C45.8059 36.5369 42.413 37.0468 39.3205 38.3887C36.228 39.7306 33.5445 41.8575 31.5391 44.5561C29.5336 47.2547 28.2767 50.4301 27.8943 53.7642C27.5119 57.0982 28.0175 60.4736 29.3604 63.5521H6.86034C5.86824 63.551 4.91709 63.1585 4.21557 62.4608C3.51405 61.7631 3.11945 60.8172 3.11834 59.8305ZM47.0105 71.9582C44.8801 71.979 42.7667 71.5797 40.7924 70.7833C38.8181 69.9869 37.0222 68.8093 35.5083 67.3184C33.9944 65.8275 32.7927 64.053 31.9725 62.0974C31.1524 60.1418 30.7301 58.044 30.7301 55.9251C30.7301 53.8063 31.1524 51.7084 31.9725 49.7528C32.7927 47.7973 33.9944 46.0228 35.5083 44.5319C37.0222 43.041 38.8181 41.8633 40.7924 41.0669C42.7667 40.2705 44.8801 39.8712 47.0105 39.8921C51.2586 39.9336 55.3185 41.6411 58.3077 44.6434C61.2969 47.6456 62.9737 51.7 62.9737 55.9251C62.9737 60.1503 61.2969 64.2046 58.3077 67.2069C55.3185 70.2092 51.2586 71.9166 47.0105 71.9582Z" fill="#083863"/>
<path d="M55.1966 54.1178H48.8274V47.7833C48.8274 47.3721 48.6631 46.9776 48.3707 46.6868C48.0783 46.396 47.6817 46.2327 47.2682 46.2327C46.8547 46.2327 46.4581 46.396 46.1657 46.6868C45.8733 46.9776 45.709 47.3721 45.709 47.7833V54.1178H39.3414C38.9279 54.1178 38.5313 54.2812 38.2389 54.572C37.9465 54.8628 37.7822 55.2572 37.7822 55.6684C37.7822 56.0797 37.9465 56.4741 38.2389 56.7649C38.5313 57.0557 38.9279 57.2191 39.3414 57.2191H45.709V64.4095C45.709 64.8208 45.8733 65.2152 46.1657 65.506C46.4581 65.7968 46.8547 65.9602 47.2682 65.9602C47.6817 65.9602 48.0783 65.7968 48.3707 65.506C48.6631 65.2152 48.8274 64.8208 48.8274 64.4095V57.2191H55.1966C55.6101 57.2191 56.0067 57.0557 56.2991 56.7649C56.5915 56.4741 56.7557 56.0797 56.7557 55.6684C56.7557 55.2572 56.5915 54.8628 56.2991 54.572C56.0067 54.2812 55.6101 54.1178 55.1966 54.1178Z" fill="#083863"/>
</svg>
