<svg width="64" height="64" viewBox="0 0 64 64" fill="none" xmlns="http://www.w3.org/2000/svg">
<path d="M59.871 8.25806H4.12903C1.84863 8.25806 0 10.1067 0 12.3871V59.871C0 62.1514 1.84863 64 4.12903 64H59.871C62.1514 64 64 62.1514 64 59.871V12.3871C64 10.1067 62.1514 8.25806 59.871 8.25806Z" fill="#D8D9DC"/>
<path d="M4.12903 8.25806H59.871C60.9661 8.25806 62.0163 8.69308 62.7906 9.46742C63.565 10.2418 64 11.292 64 12.3871V22.7097H0V12.3871C0 11.292 0.435022 10.2418 1.20937 9.46742C1.98371 8.69308 3.03394 8.25806 4.12903 8.25806Z" fill="#EC456B"/>
<path d="M12.3869 3.09677C12.3869 1.38647 11.0004 0 9.29013 0C7.57983 0 6.19336 1.38647 6.19336 3.09677V13.4194C6.19336 15.1297 7.57983 16.5161 9.29013 16.5161C11.0004 16.5161 12.3869 15.1297 12.3869 13.4194V3.09677Z" fill="#D8D9DC"/>
<path d="M57.8063 3.09677C57.8063 1.38647 56.4199 0 54.7096 0C52.9993 0 51.6128 1.38647 51.6128 3.09677V13.4194C51.6128 15.1297 52.9993 16.5161 54.7096 16.5161C56.4199 16.5161 57.8063 15.1297 57.8063 13.4194V3.09677Z" fill="#D8D9DC"/>
<path d="M46.4516 47.4838V41.2903H43.9741C43.6976 40.1696 43.252 39.0975 42.6529 38.1109L44.4077 36.3561L40.0309 31.9793L38.2761 33.7341C37.2895 33.1349 36.2174 32.6894 35.0967 32.4128V29.9354H28.9032V32.4128C27.7825 32.6894 26.7104 33.1349 25.7238 33.7341L23.969 31.9793L19.5922 36.3561L21.347 38.1109C20.7479 39.0975 20.3023 40.1696 20.0258 41.2903H17.5483V47.4838H20.0258C20.3023 48.6045 20.7478 49.6766 21.347 50.6632L19.5922 52.418L23.969 56.7948L25.7238 55.0399C26.7104 55.6392 27.7825 56.0847 28.9032 56.3612V58.8386H35.0967V56.3612C36.2174 56.0847 37.2895 55.6392 38.2761 55.0399L40.0309 56.7948L44.4077 52.418L42.6529 50.6632C43.2521 49.6766 43.6976 48.6045 43.9741 47.4838H46.4516ZM32 50.5806C30.775 50.5806 29.5775 50.2173 28.559 49.5368C27.5405 48.8562 26.7466 47.8889 26.2779 46.7572C25.8091 45.6255 25.6864 44.3802 25.9254 43.1787C26.1644 41.9773 26.7543 40.8737 27.6205 40.0075C28.4866 39.1414 29.5902 38.5515 30.7917 38.3125C31.9931 38.0735 33.2384 38.1962 34.3701 38.6649C35.5018 39.1337 36.4691 39.9276 37.1497 40.9461C37.8303 41.9646 38.1935 43.1621 38.1935 44.387C38.1935 46.0297 37.541 47.605 36.3795 48.7665C35.2179 49.9281 33.6426 50.5806 32 50.5806Z" fill="#8B8891"/>
</svg>
