<svg width="68" height="76" viewBox="0 0 68 76" fill="none" xmlns="http://www.w3.org/2000/svg">
<path d="M65.8987 48.3838C66.5131 48.3838 67.0112 47.8857 67.0112 47.2712C67.0112 46.6568 66.5131 46.1587 65.8987 46.1587C65.2842 46.1587 64.7861 46.6568 64.7861 47.2712C64.7861 47.8857 65.2842 48.3838 65.8987 48.3838Z" stroke="#F16723" stroke-miterlimit="10" stroke-linecap="round" stroke-linejoin="round"/>
<path d="M4.21362 61.3635C4.41844 61.3635 4.58447 61.1975 4.58447 60.9927C4.58447 60.7879 4.41844 60.6218 4.21362 60.6218C4.00881 60.6218 3.84277 60.7879 3.84277 60.9927C3.84277 61.1975 4.00881 61.3635 4.21362 61.3635Z" fill="#231F20"/>
<path d="M2.23657 23.7842C2.44139 23.7842 2.60742 23.6181 2.60742 23.4133C2.60742 23.2085 2.44139 23.0425 2.23657 23.0425C2.03176 23.0425 1.86572 23.2085 1.86572 23.4133C1.86572 23.6181 2.03176 23.7842 2.23657 23.7842Z" fill="#231F20"/>
<path d="M66.7639 18.8396C66.9687 18.8396 67.1348 18.6736 67.1348 18.4688C67.1348 18.2639 66.9687 18.0979 66.7639 18.0979C66.5591 18.0979 66.3931 18.2639 66.3931 18.4688C66.3931 18.6736 66.5591 18.8396 66.7639 18.8396Z" fill="#231F20"/>
<path d="M22.5095 1.65686C22.7143 1.65686 22.8804 1.49082 22.8804 1.28601C22.8804 1.0812 22.7143 0.915161 22.5095 0.915161C22.3047 0.915161 22.1387 1.0812 22.1387 1.28601C22.1387 1.49082 22.3047 1.65686 22.5095 1.65686Z" fill="#231F20"/>
<path d="M64.2913 42.3267C64.4961 42.3267 64.6621 42.1606 64.6621 41.9558C64.6621 41.751 64.4961 41.585 64.2913 41.585C64.0864 41.585 63.9204 41.751 63.9204 41.9558C63.9204 42.1606 64.0864 42.3267 64.2913 42.3267Z" fill="#231F20"/>
<path d="M67.6291 58.5203C67.834 58.5203 68 58.3542 68 58.1494C68 57.9446 67.834 57.7786 67.6291 57.7786C67.4243 57.7786 67.2583 57.9446 67.2583 58.1494C67.2583 58.3542 67.4243 58.5203 67.6291 58.5203Z" fill="#231F20"/>
<path d="M7.18066 6.10705C7.99992 6.10705 8.66406 5.44291 8.66406 4.62365C8.66406 3.8044 7.99992 3.14026 7.18066 3.14026C6.36141 3.14026 5.69727 3.8044 5.69727 4.62365C5.69727 5.44291 6.36141 6.10705 7.18066 6.10705Z" stroke="#FBD108" stroke-miterlimit="10" stroke-linecap="round" stroke-linejoin="round"/>
<path d="M1 50.8562H3.47232M2.23616 51.9687V49.62" stroke="#F16723" stroke-miterlimit="10" stroke-linecap="round" stroke-linejoin="round"/>
<path d="M64.7865 14.3893C65.0595 14.3893 65.2809 14.1679 65.2809 13.8949C65.2809 13.6218 65.0595 13.4004 64.7865 13.4004C64.5134 13.4004 64.292 13.6218 64.292 13.8949C64.292 14.1679 64.5134 14.3893 64.7865 14.3893Z" fill="#231F20"/>
<path d="M63.0557 64.0831H65.528M64.2918 65.3192V62.8469" stroke="#4D9AD4" stroke-miterlimit="10" stroke-linecap="round" stroke-linejoin="round"/>
<path d="M60.0884 19.334L59.7176 19.0867V6.7251H15.7102C12.2489 6.7251 9.40576 9.56827 9.40576 13.0295V69.7694C9.40576 72.6125 11.6309 74.8376 14.474 74.8376H55.391C58.2342 74.8376 60.4593 72.6125 60.4593 69.7694V19.4576L60.0884 19.334Z" fill="white"/>
<path d="M60.2119 19.334L59.841 19.0867V6.7251H21.7672C18.6768 6.7251 16.3281 9.56827 16.3281 13.0295V69.7694C16.3281 72.6125 18.306 74.8376 20.6547 74.8376H56.0089C58.3576 74.8376 60.3355 72.6125 60.3355 69.7694V19.4576L60.2119 19.334Z" fill="#3768A4"/>
<path d="M59.7177 19.4576V11.917C59.7177 10.6808 58.7287 9.69189 57.4926 9.69189H15.9575C13.1143 9.69189 10.7656 12.0406 10.7656 14.8838V17.1089C10.7656 17.1089 12.4963 19.334 16.452 19.4576C20.4077 19.5812 59.7177 19.4576 59.7177 19.4576Z" fill="white"/>
<path d="M14.5977 58.1495V63.8359" stroke="white" stroke-width="1.5" stroke-miterlimit="10" stroke-linecap="round"/>
<path d="M9.40576 27.7399V13.8949M9.40576 33.7971V30.0886M60.4593 49.8672V70.0167C60.4593 72.8599 58.2342 75.085 55.391 75.085H14.474C11.6309 75.085 9.40576 72.8599 9.40576 70.0167V36.1458M60.4593 47.2713V19.5813H15.7102C12.2489 19.5813 9.40576 16.7381 9.40576 13.2768C9.40576 9.81559 12.2489 6.97241 15.7102 6.97241H59.7176V19.334" stroke="#231F20" stroke-width="1.5" stroke-miterlimit="10" stroke-linecap="round" stroke-linejoin="round"/>
<path d="M59.7177 19.5811V12.0405C59.7177 10.8044 58.7287 9.81543 57.4926 9.81543H15.9575C13.1143 9.81543 10.7656 12.1641 10.7656 15.0073V17.2324" stroke="#231F20" stroke-width="1.5" stroke-miterlimit="10" stroke-linecap="round" stroke-linejoin="round"/>
<path d="M18.8006 22.6716C16.4519 22.6716 14.5977 24.5259 14.5977 26.8746M14.5977 29.0997V29.965" stroke="white" stroke-width="1.5" stroke-miterlimit="10" stroke-linecap="round"/>
<path d="M41.2989 40.9668H27.5775C26.0941 40.9668 24.8579 39.7306 24.8579 38.2473V32.3137C24.8579 30.8303 26.0941 29.5941 27.5775 29.5941H41.2989C42.7823 29.5941 44.0184 30.8303 44.0184 32.3137V38.2473C44.142 39.7306 42.9059 40.9668 41.2989 40.9668Z" fill="white"/>
<path d="M41.7934 40.9668H26.9595C25.7233 40.9668 24.7344 39.9779 24.7344 38.7417V31.8192C24.7344 30.583 25.7233 29.5941 26.9595 29.5941H41.7934C43.0296 29.5941 44.0185 30.583 44.0185 31.8192V38.7417C44.1421 39.8543 43.0296 40.9668 41.7934 40.9668Z" stroke="#231F20" stroke-width="1.5" stroke-miterlimit="10" stroke-linecap="round" stroke-linejoin="round"/>
<path d="M50.9409 2.52217H53.4132M52.1771 3.63472V1.28601" stroke="#FBD108" stroke-miterlimit="10" stroke-linecap="round" stroke-linejoin="round"/>
</svg>
